<svg width="27" height="27" viewBox="0 0 27 27" xmlns="http://www.w3.org/2000/svg"><title>61B2FCF9-D79F-49CB-9DE2-FB9577BE185C</title><path d="M14.353.157c-.422 4.133.443 8.541 2.755 12.546 2.312 4.004 5.697 6.957 9.488 8.659.42-4.133-.444-8.541-2.756-12.546-2.312-4.005-5.697-6.957-9.487-8.659zm-2.008 0C8.555 1.86 5.17 4.812 2.858 8.817.546 12.82-.319 17.228.103 21.361c3.79-1.702 7.175-4.655 9.487-8.66C11.902 8.699 12.767 4.29 12.345.158m1.005 19.056c-4.625 0-8.875 1.455-12.243 3.886 3.368 2.432 7.618 3.887 12.242 3.887 4.624 0 8.874-1.455 12.243-3.887-3.369-2.431-7.619-3.886-12.243-3.886m2.577-4.544a2.577 2.577 0 1 1-5.153 0 2.577 2.577 0 0 1 5.153 0" fill="#329FFF" fill-rule="evenodd"/></svg>