<svg width="25" height="19" viewBox="0 0 25 19" xmlns="http://www.w3.org/2000/svg"><title>lunch</title><g fill="#FEAB1C" fill-rule="evenodd"><ellipse cx="2.92" cy="7.533" rx=".387" ry=".387"/><path d="M24.713 3.831c-.006-1.648-1.05-2.814-2.313-2.974L15.744.021c-.387-.085-.973.117-.973.117l-1.173.4c1.167.158 2.646.365 4.128.597l2.35.366c.384.068.72.094 1.1.19a2 2 0 0 1 .963.549c.24.258.35.558.42.808.06.258.083.481.077.664 0 .364-.046.565-.046.565l-.028-.145c-.018-.093-.039-.23-.086-.399-.092-.329-.24-.833-.65-1.167a1.514 1.514 0 0 0-.766-.318l-1.068-.117-2.363-.26c-2.369-.26-4.725-.576-5.808-.725l-1.944.666c1.131.153 2.526.35 3.917.568l2.35.365c.384.069.72.094 1.1.19.379.097.724.293.963.55.24.257.351.557.421.808.06.257.084.48.076.664.001.363-.044.565-.044.565l-.03-.145c-.017-.093-.038-.231-.085-.4-.091-.328-.239-.833-.65-1.167a1.51 1.51 0 0 0-.766-.317l-1.067-.118-2.364-.258a219.573 219.573 0 0 1-5.597-.698c-.784.267-1.563.532-2.294.783 1.154.155 2.596.358 4.038.583l2.35.367c.383.068.72.093 1.1.19.378.096.724.292.962.548.242.258.352.558.422.81.06.256.082.48.076.663 0 .364-.046.565-.046.565l-.028-.145c-.018-.093-.039-.231-.086-.4-.092-.328-.238-.833-.65-1.166a1.508 1.508 0 0 0-.766-.318l-1.068-.117-2.363-.26a221.69 221.69 0 0 1-5.717-.714l-2.275.778a2.475 2.475 0 0 0-.908.583 2.947 2.947 0 0 0-.83 2.076s-.245 2.286 1.09 2.875l.05 6.396a.666.666 0 0 0 .584.655l8.628 1.073c.277.035.557.008.821-.08l12.08-3.966a.667.667 0 0 0 .458-.625l.09-6.674c.99-.227.894-3.068.894-3.068zM10.296 8.918c-.112 1.363-1.074 1.631-1.074 1.631l.005 1.53c-.047-.009-.088-.028-.138-.028a.825.825 0 1 0 0 1.652c.052 0 .095-.02.144-.029l.01 2.63a.348.348 0 0 0-.157-.043.346.346 0 0 0-.315.486l-4.305-.54a.519.519 0 0 0 .241-.434.529.529 0 1 0-1.058 0 .52.52 0 0 0 .135.348l-1.35-.17-.006-1.43c.018 0 .034.01.052.01a.825.825 0 1 0 0-1.652c-.02 0-.038.01-.058.012l-.013-3.38S1.147 9.04 1.242 7.41c0 0 .159-1.597 1.288-1.638l1.66.209a.824.824 0 0 0-.057.29.825.825 0 1 0 1.652 0c0-.032-.015-.06-.018-.091l3.393.427a.42.42 0 0 0-.136.309.429.429 0 0 0 .821.171c.658.48.45 1.83.45 1.83z"/><ellipse cx="5.372" cy="9.159" rx=".413" ry=".413"/><ellipse cx="4.959" cy="12.05" rx=".826" ry=".826"/><circle cx="7.85" cy="8.333" r=".413"/><ellipse cx="7.024" cy="12.463" rx=".413" ry=".413"/><ellipse cx="6.611" cy="14.528" rx=".826" ry=".826"/><ellipse cx="3.72" cy="9.985" rx=".413" ry=".413"/></g></svg>