<?xml version="1.0" encoding="UTF-8" standalone="no"?>
<svg width="44px" height="50px" viewBox="0 0 44 50" version="1.1" xmlns="http://www.w3.org/2000/svg" xmlns:xlink="http://www.w3.org/1999/xlink">
    <!-- Generator: Sketch 41.2 (35397) - http://www.bohemiancoding.com/sketch -->
    <title>blue pressed</title>
    <desc>Created with Sketch.</desc>
    <defs>
        <path d="M20.2736969,0.409278082 C21.2271078,-0.145323561 22.7700919,-0.146952507 23.7263031,0.409278082 L42.2736969,11.1983464 C43.2271078,11.752948 44,13.0984705 44,14.2109317 L44,35.7890683 C44,36.8982716 43.2299081,38.245423 42.2736969,38.8016536 L23.7263031,49.5907219 C22.7728922,50.1453236 21.2299081,50.1469525 20.2736969,49.5907219 L1.7263031,38.8016536 C0.772892225,38.247052 -2.93098879e-14,36.9015295 -3.06421555e-14,35.7890683 L-4.21884749e-14,14.2109317 C-4.26325641e-14,13.1017284 0.770091917,11.754577 1.7263031,11.1983464 L20.2736969,0.409278082 Z" id="path-1"></path>
        <filter x="-50%" y="-50%" width="200%" height="200%" filterUnits="objectBoundingBox" id="filter-2">
            <feGaussianBlur stdDeviation="0.5" in="SourceAlpha" result="shadowBlurInner1"></feGaussianBlur>
            <feOffset dx="0" dy="-1" in="shadowBlurInner1" result="shadowOffsetInner1"></feOffset>
            <feComposite in="shadowOffsetInner1" in2="SourceAlpha" operator="arithmetic" k2="-1" k3="1" result="shadowInnerInner1"></feComposite>
            <feColorMatrix values="0 0 0 0 1   0 0 0 0 1   0 0 0 0 1  0 0 0 0.179630888 0" type="matrix" in="shadowInnerInner1"></feColorMatrix>
        </filter>
        <linearGradient x1="50%" y1="0%" x2="50%" y2="98.4375%" id="linearGradient-3">
            <stop stop-color="#68B9FF" offset="0%"></stop>
            <stop stop-color="#1F75EB" offset="100%"></stop>
        </linearGradient>
        <path d="M30.9673491,25.2377742 C30.9625035,25.2210164 30.9586674,25.2040567 30.9518027,25.1879047 C30.9445343,25.1703393 30.9346411,25.1541872 30.9253537,25.1376313 C30.9184891,25.1255173 30.9132396,25.1127975 30.9053655,25.1010873 C30.8867906,25.0732249 30.865591,25.0469778 30.8419686,25.0235573 L29.057972,23.2395607 C28.8609167,23.0423035 28.5411056,23.0423035 28.3442522,23.2395607 C28.146995,23.436616 28.146995,23.7562252 28.3442522,23.9532805 L29.2671414,24.8761696 L24.3777066,24.8761696 C24.1764113,23.8886722 23.3970737,23.1093346 22.4095763,22.9080394 L22.4095763,18.0186046 L23.3324654,18.9414937 C23.4309931,19.0400214 23.5602097,19.0892852 23.6894263,19.0892852 C23.8186429,19.0892852 23.9478595,19.0400214 24.0463871,18.9414937 C24.2436443,18.7444384 24.2436443,18.4248292 24.0463871,18.2277739 L22.2621886,16.4435754 C22.2385662,16.419953 22.212521,16.3987534 22.1846587,16.3801785 C22.1725446,16.3721025 22.159421,16.3666512 22.1469032,16.3597865 C22.1305492,16.3509029 22.1150028,16.3410097 22.0976394,16.3339432 C22.0810835,16.3270786 22.0639219,16.3232425 22.0471641,16.3181949 C22.0326273,16.313955 22.0184942,16.3083018 22.0035535,16.3052733 C21.9383395,16.2923516 21.8711065,16.2923516 21.8058925,16.3052733 C21.7907499,16.3083018 21.7768188,16.313955 21.7622819,16.3181949 C21.7453222,16.3232425 21.7283626,16.3270786 21.7118067,16.3339432 C21.6946451,16.3412116 21.6788968,16.3509029 21.6625429,16.3597865 C21.650025,16.3666512 21.6369014,16.3723044 21.6247874,16.3801785 C21.5969251,16.3987534 21.5708798,16.419953 21.5472574,16.4435754 L19.7632608,18.227572 C19.5660036,18.4246273 19.5660036,18.7442365 19.7632608,18.9412918 C19.9603161,19.138549 20.2801272,19.138549 20.4769806,18.9412918 L21.3998697,18.0184027 L21.3998697,22.9076356 C20.4123723,23.1089308 19.6330347,23.8882684 19.4317395,24.8757658 L14.5427085,24.8757658 L15.4655976,23.9528767 C15.6628548,23.7558214 15.6628548,23.4362122 15.4655976,23.2391569 C15.2685423,23.0418997 14.9487312,23.0418997 14.7518778,23.2391569 L12.9676793,25.0233554 C12.9440569,25.0469778 12.9228573,25.073023 12.9042824,25.1008854 C12.8964083,25.1127975 12.890957,25.1255173 12.8842942,25.1378332 C12.8752087,25.1543891 12.8653156,25.1701374 12.8580471,25.1877028 C12.8513844,25.2040567 12.8473464,25.2212183 12.8425007,25.238178 C12.8382608,25.2527149 12.8326076,25.2668479 12.8295791,25.2819905 C12.8166574,25.3472045 12.8166574,25.4144375 12.8295791,25.4796515 C12.8326076,25.4947941 12.8382608,25.5089271 12.8425007,25.523464 C12.8475483,25.5404237 12.8513844,25.5573834 12.858249,25.5739392 C12.8655175,25.5913027 12.8754106,25.6072529 12.8842942,25.6236069 C12.8911589,25.6361247 12.8966102,25.6488445 12.9044843,25.6607566 C12.9230592,25.688619 12.9442588,25.7148661 12.9678812,25.7382866 L14.7518778,27.5222832 C14.8504055,27.6208109 14.9796221,27.6700747 15.1088387,27.6700747 C15.2380553,27.6700747 15.3672719,27.6208109 15.4657995,27.5222832 C15.6630567,27.3252279 15.6630567,27.0056187 15.4657995,26.8085634 L14.5427085,25.8854724 L19.4319414,25.8854724 C19.6332366,26.8729698 20.4125742,27.6523074 21.4000716,27.8536026 L21.4000716,32.7428356 L20.4771825,31.8199464 C20.2801272,31.6226892 19.9603161,31.6226892 19.7634627,31.8199464 C19.5662055,32.0170017 19.5662055,32.3366109 19.7634627,32.5336662 L21.5474593,34.3176628 C21.5710817,34.3412852 21.597127,34.3624848 21.6249893,34.3810597 C21.6371033,34.3891357 21.650025,34.3945871 21.6625429,34.4014517 C21.6788968,34.4103353 21.6944432,34.4202285 21.7118067,34.427295 C21.7283626,34.4341596 21.7453222,34.4379958 21.7622819,34.4430433 C21.7768188,34.4472832 21.7909518,34.4529364 21.8060944,34.4559649 C21.8386005,34.4628296 21.8717122,34.4662619 21.904824,34.4662619 C21.9379357,34.4662619 21.9710475,34.4628296 22.0035535,34.4563687 C22.0186961,34.4533402 22.0328292,34.447687 22.047366,34.4434471 C22.0641238,34.4386015 22.0812854,34.4345634 22.0978413,34.4279007 C22.1152047,34.4206323 22.130953,34.410941 22.147307,34.4018555 C22.1598248,34.3949909 22.1727465,34.3895395 22.1846587,34.3814635 C22.2127229,34.3628886 22.2387681,34.341689 22.2621886,34.3180666 L24.0461852,32.53407 C24.2434424,32.3370147 24.2434424,32.0174055 24.0461852,31.8203502 C23.8491299,31.623093 23.5293189,31.623093 23.3324654,31.8203502 L22.4095763,32.7428356 L22.4095763,27.8536026 C23.3970737,27.6523074 24.1764113,26.8729698 24.3777066,25.8854724 L29.2669395,25.8854724 L28.3440503,26.8083615 C28.1467931,27.0054168 28.1467931,27.325026 28.3440503,27.5220813 C28.442578,27.620609 28.5717946,27.6698728 28.7010112,27.6698728 C28.8302278,27.6698728 28.9594444,27.620609 29.057972,27.5220813 L30.8419686,25.7380847 C30.865591,25.7144623 30.8867906,25.6884171 30.9053655,25.6605547 C30.9132396,25.6488445 30.9184891,25.6359228 30.9253537,25.6238088 C30.9344392,25.6072529 30.9443324,25.5913027 30.9516008,25.5737373 C30.9582636,25.5573834 30.9620997,25.5404237 30.9671472,25.5236659 C30.971589,25.5089271 30.9772422,25.4947941 30.9802708,25.4794496 C30.9931924,25.4142356 30.9931924,25.3470026 30.9802708,25.2817886 C30.9774441,25.266646 30.971589,25.252513 30.9673491,25.2377742 Z M21.904824,26.894977 C21.0697617,26.894977 20.390567,26.2157823 20.390567,25.3807201 C20.390567,24.5456578 21.0697617,23.8664631 21.904824,23.8664631 C22.7398862,23.8664631 23.4190809,24.5456578 23.4190809,25.3807201 C23.4190809,26.2157823 22.7398862,26.894977 21.904824,26.894977 Z" id="path-4"></path>
        <filter x="-50%" y="-50%" width="200%" height="200%" filterUnits="objectBoundingBox" id="filter-5">
            <feMorphology radius="0.5" operator="dilate" in="SourceAlpha" result="shadowSpreadOuter1"></feMorphology>
            <feOffset dx="0" dy="3" in="shadowSpreadOuter1" result="shadowOffsetOuter1"></feOffset>
            <feGaussianBlur stdDeviation="10.5" in="shadowOffsetOuter1" result="shadowBlurOuter1"></feGaussianBlur>
            <feColorMatrix values="0 0 0 0 0.196078431   0 0 0 0 0.623529412   0 0 0 0 1  0 0 0 0.470250226 0" type="matrix" in="shadowBlurOuter1"></feColorMatrix>
        </filter>
    </defs>
    <g stroke="none" stroke-width="1" fill="none" fill-rule="evenodd">
        <g>
            <g opacity="0.600000024">
                <use fill-opacity="0.100000001" fill="#000000" fill-rule="evenodd" xlink:href="#path-1"></use>
                <use fill="black" fill-opacity="1" filter="url(#filter-2)" xlink:href="#path-1"></use>
                <use stroke-opacity="0.101251132" stroke="#000000" stroke-width="1" xlink:href="#path-1"></use>
            </g>
            <g>
                <use fill="black" fill-opacity="1" filter="url(#filter-5)" xlink:href="#path-4"></use>
                <use fill="url(#linearGradient-3)" fill-rule="evenodd" xlink:href="#path-4"></use>
            </g>
        </g>
    </g>
</svg>