<?xml version="1.0" encoding="UTF-8" standalone="no"?>
<svg width="44px" height="50px" viewBox="0 0 44 50" version="1.1" xmlns="http://www.w3.org/2000/svg" xmlns:xlink="http://www.w3.org/1999/xlink">
    <!-- Generator: Sketch 41.2 (35397) - http://www.bohemiancoding.com/sketch -->
    <title>blue</title>
    <desc>Created with Sketch.</desc>
    <defs>
        <path d="M20.2736969,0.409278082 C21.2271078,-0.145323561 22.7700919,-0.146952507 23.7263031,0.409278082 L42.2736969,11.1983464 C43.2271078,11.752948 44,13.0984705 44,14.2109317 L44,35.7890683 C44,36.8982716 43.2299081,38.245423 42.2736969,38.8016536 L23.7263031,49.5907219 C22.7728922,50.1453236 21.2299081,50.1469525 20.2736969,49.5907219 L1.7263031,38.8016536 C0.772892225,38.247052 -2.93098879e-14,36.9015295 -3.06421555e-14,35.7890683 L-4.21884749e-14,14.2109317 C-4.26325641e-14,13.1017284 0.770091917,11.754577 1.7263031,11.1983464 L20.2736969,0.409278082 Z" id="path-1"></path>
        <filter x="-50%" y="-50%" width="200%" height="200%" filterUnits="objectBoundingBox" id="filter-2">
            <feGaussianBlur stdDeviation="0.5" in="SourceAlpha" result="shadowBlurInner1"></feGaussianBlur>
            <feOffset dx="0" dy="-1" in="shadowBlurInner1" result="shadowOffsetInner1"></feOffset>
            <feComposite in="shadowOffsetInner1" in2="SourceAlpha" operator="arithmetic" k2="-1" k3="1" result="shadowInnerInner1"></feComposite>
            <feColorMatrix values="0 0 0 0 1   0 0 0 0 1   0 0 0 0 1  0 0 0 0.179630888 0" type="matrix" in="shadowInnerInner1"></feColorMatrix>
        </filter>
        <path d="M16.8948677,3.10889103 C17.8536441,2.55607769 19.407712,2.55583803 20.366904,3.10889103 L35.5257536,11.8492132 C36.4845299,12.4020266 37.2617717,13.7459785 37.2617717,14.8520845 L37.2617717,32.3327289 C37.2617717,33.4383555 36.4849456,34.7825471 35.5257536,35.3356001 L20.366904,44.0759223 C19.4081277,44.6287357 17.8540597,44.6289753 16.8948677,44.0759223 L1.73601815,35.3356001 C0.777241801,34.7827868 -4.88498131e-15,33.4388349 -4.88498131e-15,32.3327289 L-1.46549439e-14,14.8520845 C-1.55431223e-14,13.7464578 0.776826146,12.4022662 1.73601815,11.8492132 L16.8948677,3.10889103 Z" id="path-3"></path>
        <filter x="-50%" y="-50%" width="200%" height="200%" filterUnits="objectBoundingBox" id="filter-4">
            <feMorphology radius="0.5" operator="dilate" in="SourceAlpha" result="shadowSpreadOuter1"></feMorphology>
            <feOffset dx="1" dy="1" in="shadowSpreadOuter1" result="shadowOffsetOuter1"></feOffset>
            <feGaussianBlur stdDeviation="1.5" in="shadowOffsetOuter1" result="shadowBlurOuter1"></feGaussianBlur>
            <feColorMatrix values="0 0 0 0 0   0 0 0 0 0   0 0 0 0 0  0 0 0 0.303810009 0" type="matrix" in="shadowBlurOuter1"></feColorMatrix>
        </filter>
        <linearGradient x1="50%" y1="104.533284%" x2="15.8053318%" y2="32.4257854%" id="linearGradient-5">
            <stop stop-color="#19242C" offset="0%"></stop>
            <stop stop-color="#2A3B48" offset="100%"></stop>
        </linearGradient>
        <path d="M16.8948677,1.08908905 C17.8536441,0.53627571 19.407712,0.53603605 20.366904,1.08908905 L35.5257536,9.82941123 C36.4845299,10.3822246 37.2617717,11.7261765 37.2617717,12.8322825 L37.2617717,30.3129269 C37.2617717,31.4185536 36.4849456,32.7627452 35.5257536,33.3157982 L20.366904,42.0561203 C19.4081277,42.6089337 17.8540597,42.6091733 16.8948677,42.0561203 L1.73601815,33.3157982 C0.777241801,32.7629848 -4.88498131e-15,31.4190329 -4.88498131e-15,30.3129269 L-1.46549439e-14,12.8322825 C-1.55431223e-14,11.7266558 0.776826146,10.3824642 1.73601815,9.82941123 L16.8948677,1.08908905 Z" id="path-6"></path>
        <path d="M42.1646364,10.2142704 L42.1646364,9.85647792 C42.1646364,8.7422163 41.3898684,7.40048812 40.4341436,6.84633636 L20.3613787,-4.79232541 C19.4138959,-5.3416983 17.8561178,-5.34647717 16.900393,-4.79232541 L-3.17237183,6.84633636 C-4.11985471,7.39570925 -4.9028647,8.7481744 -4.9028647,9.85647792 L-4.9028647,33.1338015 C-4.9028647,34.2480631 -4.12809666,35.5897913 -3.17237183,36.143943 L-2.37193278,36.6080565 C3.40245431,20.931648 18.4204187,9.75686167 36.037261,9.75686167 C38.1196915,9.75686167 40.1658083,9.91300525 42.1646364,10.2142704 Z" id="path-8"></path>
        <filter x="-50%" y="-50%" width="200%" height="200%" filterUnits="objectBoundingBox" id="filter-9">
            <feOffset dx="0" dy="2" in="SourceAlpha" result="shadowOffsetOuter1"></feOffset>
            <feGaussianBlur stdDeviation="12" in="shadowOffsetOuter1" result="shadowBlurOuter1"></feGaussianBlur>
            <feColorMatrix values="0 0 0 0 0.0901960784   0 0 0 0 0.129411765   0 0 0 0 0.156862745  0 0 0 0.6 0" type="matrix" in="shadowBlurOuter1"></feColorMatrix>
        </filter>
        <linearGradient x1="50%" y1="0%" x2="50%" y2="98.4375%" id="linearGradient-10">
            <stop stop-color="#68B9FF" offset="0%"></stop>
            <stop stop-color="#1F75EB" offset="100%"></stop>
        </linearGradient>
        <path d="M18.1474613,8.94219217 C18.1426156,8.92543439 18.1387795,8.90847472 18.1319149,8.89232264 C18.1246464,8.87475726 18.1147533,8.85860519 18.1054659,8.84204931 C18.0986012,8.82993525 18.0933518,8.8172155 18.0854777,8.80550524 C18.0669028,8.77764291 18.0457032,8.75139579 18.0220808,8.72797528 L16.2380842,6.94397867 C16.0410289,6.74672146 15.7212178,6.74672146 15.5243644,6.94397867 C15.3271072,7.14103398 15.3271072,7.46064315 15.5243644,7.65769846 L16.4472535,8.58058761 L11.5578187,8.58058761 C11.3565235,7.59309016 10.5771859,6.81375257 9.58968845,6.61245734 L9.58968845,1.72302253 L10.5125776,2.64591168 C10.6111053,2.74443934 10.7403218,2.79370316 10.8695384,2.79370316 C10.998755,2.79370316 11.1279716,2.74443934 11.2264993,2.64591168 C11.4237565,2.44885637 11.4237565,2.1292472 11.2264993,1.9321919 L9.44230077,0.147993381 C9.41867836,0.124370973 9.39263314,0.103171375 9.36477082,0.0845964895 C9.35265676,0.0765204523 9.3395332,0.0710691272 9.32701534,0.0642044956 C9.31066137,0.0553208547 9.295115,0.0454277092 9.27775152,0.0383611766 C9.26119564,0.031496545 9.24403406,0.0276604274 9.22727628,0.0226129041 C9.21273942,0.0183729846 9.19860635,0.0127197586 9.18366568,0.00969124462 C9.11845168,-0.00323041487 9.05121867,-0.00323041487 8.98600467,0.00969124462 C8.9708621,0.0127197586 8.95693094,0.0183729846 8.94239407,0.0226129041 C8.92543439,0.0276604274 8.90847472,0.031496545 8.89191884,0.0383611766 C8.87475726,0.0456296101 8.85900899,0.0553208547 8.84265501,0.0642044956 C8.83013715,0.0710691272 8.81701359,0.0767223532 8.80489954,0.0845964895 C8.77703721,0.103171375 8.75099199,0.124370973 8.72736958,0.147993381 L6.94337297,1.93199 C6.74611576,2.1290453 6.74611576,2.44865447 6.94337297,2.64570978 C7.14042828,2.84296699 7.46023935,2.84296699 7.65709275,2.64570978 L8.5799819,1.72282063 L8.5799819,6.61205354 C7.59248446,6.81334877 6.81314687,7.59268636 6.61185164,8.5801838 L1.72282063,8.5801838 L2.64570978,7.65729465 C2.84296699,7.46023935 2.84296699,7.14063018 2.64570978,6.94357487 C2.44865447,6.74631766 2.1288434,6.74631766 1.93199,6.94357487 L0.14779148,8.72777338 C0.124169072,8.75139579 0.102969474,8.77744101 0.0843945886,8.80530334 C0.0765204523,8.8172155 0.0710691272,8.82993525 0.0644063965,8.84225121 C0.0553208547,8.85880709 0.0454277092,8.87455536 0.0381592757,8.89212074 C0.031496545,8.90847472 0.0274585264,8.92563629 0.0226129041,8.94259597 C0.0183729846,8.95713284 0.0127197586,8.9712659 0.00969124462,8.98640847 C-0.00323041487,9.05162247 -0.00323041487,9.11885548 0.00969124462,9.18406948 C0.0127197586,9.19921205 0.0183729846,9.21334512 0.0226129041,9.22788199 C0.0276604274,9.24484166 0.031496545,9.26180134 0.0383611766,9.27835722 C0.0456296101,9.2957207 0.0555227556,9.31167087 0.0644063965,9.32802485 C0.0712710281,9.3405427 0.0767223532,9.35326246 0.0845964895,9.36517462 C0.103171375,9.39303695 0.124370973,9.41928407 0.147993381,9.44270457 L1.93199,11.2267012 C2.03051765,11.3252288 2.15973424,11.3744927 2.28895084,11.3744927 C2.41816743,11.3744927 2.54738403,11.3252288 2.64591168,11.2267012 C2.84316889,11.0296459 2.84316889,10.7100367 2.64591168,10.5129814 L1.72282063,9.58989035 L6.61205354,9.58989035 C6.81334877,10.5773878 7.59268636,11.3567254 8.5801838,11.5580206 L8.5801838,16.4472535 L7.65729465,15.5243644 C7.46023935,15.3271072 7.14042828,15.3271072 6.94357487,15.5243644 C6.74631766,15.7214197 6.74631766,16.0410289 6.94357487,16.2380842 L8.72757148,18.0220808 C8.75119389,18.0457032 8.77723911,18.0669028 8.80510144,18.0854777 C8.8172155,18.0935537 8.83013715,18.099005 8.84265501,18.1058697 C8.85900899,18.1147533 8.87455536,18.1246464 8.89191884,18.131713 C8.90847472,18.1385776 8.92543439,18.1424137 8.94239407,18.1474613 C8.95693094,18.1517012 8.971064,18.1573544 8.98620657,18.1603829 C9.01871262,18.1672475 9.05182438,18.1706799 9.08493613,18.1706799 C9.11804788,18.1706799 9.15115963,18.1672475 9.18366568,18.1607867 C9.19880825,18.1577582 9.21294132,18.152105 9.22747818,18.1478651 C9.24423596,18.1430194 9.26139754,18.1389814 9.27795342,18.1323187 C9.2953169,18.1250502 9.31106517,18.115359 9.32741914,18.1062735 C9.339937,18.0994088 9.35285866,18.0939575 9.36477082,18.0858815 C9.39283505,18.0673066 9.41888027,18.046107 9.44230077,18.0224846 L11.2262974,16.238488 C11.4235546,16.0414327 11.4235546,15.7218235 11.2262974,15.5247682 C11.0292421,15.327511 10.709431,15.327511 10.5125776,15.5247682 L9.58968845,16.4472535 L9.58968845,11.5580206 C10.5771859,11.3567254 11.3565235,10.5773878 11.5578187,9.58989035 L16.4470516,9.58989035 L15.5241625,10.5127795 C15.3269053,10.7098348 15.3269053,11.029444 15.5241625,11.2264993 C15.6226901,11.3250269 15.7519067,11.3742908 15.8811233,11.3742908 C16.0103399,11.3742908 16.1395565,11.3250269 16.2380842,11.2264993 L18.0220808,9.44250267 C18.0457032,9.41888027 18.0669028,9.39283505 18.0854777,9.36497272 C18.0933518,9.35326246 18.0986012,9.3403408 18.1054659,9.32822675 C18.1145514,9.31167087 18.1244445,9.2957207 18.131713,9.27815532 C18.1383757,9.26180134 18.1422118,9.24484166 18.1472594,9.22808389 C18.1517012,9.21334512 18.1573544,9.19921205 18.1603829,9.18386758 C18.1733046,9.11865358 18.1733046,9.05142057 18.1603829,8.98620657 C18.1575563,8.971064 18.1517012,8.95693094 18.1474613,8.94219217 Z M9.08493613,10.599395 C8.24987388,10.599395 7.57067916,9.92020027 7.57067916,9.08513803 C7.57067916,8.25007578 8.24987388,7.57088106 9.08493613,7.57088106 C9.91999837,7.57088106 10.5991931,8.25007578 10.5991931,9.08513803 C10.5991931,9.92020027 9.91999837,10.599395 9.08493613,10.599395 Z" id="path-11"></path>
        <filter x="-50%" y="-50%" width="200%" height="200%" filterUnits="objectBoundingBox" id="filter-12">
            <feMorphology radius="0.5" operator="dilate" in="SourceAlpha" result="shadowSpreadOuter1"></feMorphology>
            <feOffset dx="0" dy="3" in="shadowSpreadOuter1" result="shadowOffsetOuter1"></feOffset>
            <feGaussianBlur stdDeviation="10.5" in="shadowOffsetOuter1" result="shadowBlurOuter1"></feGaussianBlur>
            <feColorMatrix values="0 0 0 0 0.196078431   0 0 0 0 0.623529412   0 0 0 0 1  0 0 0 0.470250226 0" type="matrix" in="shadowBlurOuter1"></feColorMatrix>
        </filter>
    </defs>
    <g stroke="none" stroke-width="1" fill="none" fill-rule="evenodd">
        <g>
            <g opacity="0.600000024">
                <use fill-opacity="0.100000001" fill="#000000" fill-rule="evenodd" xlink:href="#path-1"></use>
                <use fill="black" fill-opacity="1" filter="url(#filter-2)" xlink:href="#path-1"></use>
                <use stroke-opacity="0.101251132" stroke="#000000" stroke-width="1" xlink:href="#path-1"></use>
            </g>
            <g transform="translate(3.000000, 3.000000)">
                <g>
                    <g>
                        <g>
                            <use fill="black" fill-opacity="1" filter="url(#filter-4)" xlink:href="#path-3"></use>
                            <use fill="#141C22" fill-rule="evenodd" xlink:href="#path-3"></use>
                        </g>
                        <mask id="mask-7" fill="white">
                            <use xlink:href="#path-6"></use>
                        </mask>
                        <use fill="url(#linearGradient-5)" xlink:href="#path-6"></use>
                        <g opacity="0.516304348" style="mix-blend-mode: soft-light;" mask="url(#mask-7)">
                            <use fill="black" fill-opacity="1" filter="url(#filter-9)" xlink:href="#path-8"></use>
                            <use fill="#FFFFFF" fill-rule="evenodd" xlink:href="#path-8"></use>
                        </g>
                    </g>
                    <g transform="translate(9.819888, 13.295582)">
                        <g>
                            <g>
                                <use fill="black" fill-opacity="1" filter="url(#filter-12)" xlink:href="#path-11"></use>
                                <use fill="url(#linearGradient-10)" fill-rule="evenodd" xlink:href="#path-11"></use>
                            </g>
                        </g>
                    </g>
                </g>
            </g>
        </g>
    </g>
</svg>