<?xml version="1.0" encoding="UTF-8" standalone="no"?>
<svg width="19px" height="21px" viewBox="0 0 19 21" version="1.1" xmlns="http://www.w3.org/2000/svg" xmlns:xlink="http://www.w3.org/1999/xlink">
    <!-- Generator: Sketch 41.2 (35397) - http://www.bohemiancoding.com/sketch -->
    <title>breakfast</title>
    <desc>Created with Sketch.</desc>
    <defs></defs>
    <g stroke="none" stroke-width="1" fill="none" fill-rule="evenodd">
        <g fill="#4BDEBE">
            <g>
                <path d="M18.1727,5.4474 C18.1727,2.6537 16.5116,0 15.0101,0 L15.0059,0 L14.9961,0 C13.4946,0 11.8314,2.6537 11.8314,5.4474 C11.8314,7.7434 12.9549,9.1231 14.1897,9.5333 C14.2184,9.6593 14.2058,9.8098 14.2037,9.9008 L13.8635,20.1467 C13.8495,20.5779 14.1897,21 14.6209,21 L15.0066,21 L15.3811,21 C15.813,21 16.1539,20.5842 16.1399,20.153 L15.799,9.919 C15.7962,9.8273 15.785,9.6628 15.813,9.5368 C17.0478,9.1266 18.1727,7.7441 18.1727,5.4474 Z"></path>
                <path d="M10.2711,10.5 C10.4195,9.9323 10.5,9.3289 10.5,8.7024 C10.5,5.4166 8.3062,1.4 5.6,1.4 C2.8938,1.4 0.7,5.4166 0.7,8.7024 C0.7,9.3289 0.7805,9.9323 0.9289,10.5 L10.2711,10.5 Z"></path>
                <path d="M1.4,19.6 C0.6272,19.6 0,20.2272 0,21 L11.2,21 C11.2,20.2272 10.5728,19.6 9.8,19.6 L7,19.6 L7,16.8 C9.1,16.2295 10.8955,14.2198 11.1601,11.9 L0.0399,11.9 C0.3045,14.2198 2.1,16.2295 4.2,16.8 L4.2,19.6 L1.4,19.6 Z"></path>
            </g>
        </g>
    </g>
</svg>