<?xml version="1.0" encoding="UTF-8" standalone="no"?>
<svg width="24px" height="21px" viewBox="0 0 24 21" version="1.1" xmlns="http://www.w3.org/2000/svg" xmlns:xlink="http://www.w3.org/1999/xlink">
    <!-- Generator: Sketch 41.2 (35397) - http://www.bohemiancoding.com/sketch -->
    <title>dinner</title>
    <desc>Created with Sketch.</desc>
    <defs></defs>
    <g stroke="none" stroke-width="1" fill="none" fill-rule="evenodd">
        <g fill="#329FFF">
            <g>
                <path d="M24,5.625 C24,2.51775 18.62775,0 12,0 C5.37225,0 0,2.51775 0,5.625 L0,6 C0,10.971 3,18 12,18 C21,18 23.6925,10.93425 24,6 C23.985,6.01425 24,5.766 24,5.625 Z M12,12 C12.41475,12 12.75,12.33525 12.75,12.75 C12.75,13.16475 12.41475,13.5 12,13.5 C11.58525,13.5 11.25,13.16475 11.25,12.75 C11.25,12.33525 11.58525,12 12,12 Z M12,1.5 C18.4095,1.5 22.5,3.9435 22.5,5.625 C22.5,7.3065 18.4095,9.75 12,9.75 C5.5905,9.75 1.5,7.3065 1.5,5.625 C1.5,3.9435 5.5905,1.5 12,1.5 Z M10.5,15 C10.08525,15 9.75,14.66475 9.75,14.25 C9.75,13.83525 10.08525,13.5 10.5,13.5 C10.91475,13.5 11.25,13.83525 11.25,14.25 C11.25,14.66475 10.91475,15 10.5,15 Z M12,16.5 C11.58525,16.5 11.25,16.16475 11.25,15.75 C11.25,15.33525 11.58525,15 12,15 C12.41475,15 12.75,15.33525 12.75,15.75 C12.75,16.16475 12.41475,16.5 12,16.5 Z M13.5,15 C13.08525,15 12.75,14.66475 12.75,14.25 C12.75,13.83525 13.08525,13.5 13.5,13.5 C13.91475,13.5 14.25,13.83525 14.25,14.25 C14.25,14.66475 13.91475,15 13.5,15 Z"></path>
                <path d="M19.89825,16.377 C17.718,17.98875 14.904,18.74925 12,18.74925 C9.096,18.74925 6.52575,17.98875 4.34625,16.377 C3.708,16.815 3.34725,17.31225 3.34725,17.841 C3.34725,19.5855 7.27575,21 12.1215,21 C16.968,21 20.895,19.5855 20.895,17.841 C20.895,17.31225 20.535,16.815 19.89825,16.377 Z"></path>
                <circle cx="6" cy="4.5" r="0.75"></circle>
                <circle cx="6" cy="7.5" r="0.75"></circle>
                <ellipse cx="7.5" cy="6" rx="0.75" ry="0.75"></ellipse>
                <ellipse cx="4.5" cy="6" rx="0.75" ry="0.75"></ellipse>
                <ellipse cx="18" cy="4.5" rx="0.75" ry="0.75"></ellipse>
                <ellipse cx="18" cy="7.5" rx="0.75" ry="0.75"></ellipse>
                <circle cx="19.5" cy="6" r="0.75"></circle>
                <ellipse cx="16.5" cy="6" rx="0.75" ry="0.75"></ellipse>
            </g>
        </g>
    </g>
</svg>