<?xml version="1.0" encoding="UTF-8" standalone="no"?>
<svg width="44px" height="50px" viewBox="0 0 44 50" version="1.1" xmlns="http://www.w3.org/2000/svg" xmlns:xlink="http://www.w3.org/1999/xlink">
    <!-- Generator: Sketch 41.2 (35397) - http://www.bohemiancoding.com/sketch -->
    <title>green pressed</title>
    <desc>Created with Sketch.</desc>
    <defs>
        <path d="M20.2736969,0.409278082 C21.2271078,-0.145323561 22.7700919,-0.146952507 23.7263031,0.409278082 L42.2736969,11.1983464 C43.2271078,11.752948 44,13.0984705 44,14.2109317 L44,35.7890683 C44,36.8982716 43.2299081,38.245423 42.2736969,38.8016536 L23.7263031,49.5907219 C22.7728922,50.1453236 21.2299081,50.1469525 20.2736969,49.5907219 L1.7263031,38.8016536 C0.772892225,38.247052 -2.93098879e-14,36.9015295 -3.06421555e-14,35.7890683 L-4.21884749e-14,14.2109317 C-4.26325641e-14,13.1017284 0.770091917,11.754577 1.7263031,11.1983464 L20.2736969,0.409278082 Z" id="path-1"></path>
        <filter x="-50%" y="-50%" width="200%" height="200%" filterUnits="objectBoundingBox" id="filter-2">
            <feGaussianBlur stdDeviation="0.5" in="SourceAlpha" result="shadowBlurInner1"></feGaussianBlur>
            <feOffset dx="0" dy="-1" in="shadowBlurInner1" result="shadowOffsetInner1"></feOffset>
            <feComposite in="shadowOffsetInner1" in2="SourceAlpha" operator="arithmetic" k2="-1" k3="1" result="shadowInnerInner1"></feComposite>
            <feColorMatrix values="0 0 0 0 1   0 0 0 0 1   0 0 0 0 1  0 0 0 0.179630888 0" type="matrix" in="shadowInnerInner1"></feColorMatrix>
        </filter>
        <linearGradient x1="50%" y1="0%" x2="50%" y2="100%" id="linearGradient-3">
            <stop stop-color="#82F1E1" offset="0%"></stop>
            <stop stop-color="#4BDEBE" offset="100%"></stop>
        </linearGradient>
    </defs>
    <g stroke="none" stroke-width="1" fill="none" fill-rule="evenodd">
        <g>
            <g opacity="0.600000024">
                <use fill-opacity="0.100000001" fill="#000000" fill-rule="evenodd" xlink:href="#path-1"></use>
                <use fill="black" fill-opacity="1" filter="url(#filter-2)" xlink:href="#path-1"></use>
                <use stroke-opacity="0.101251132" stroke="#000000" stroke-width="1" xlink:href="#path-1"></use>
            </g>
            <path d="M22.0609676,34.7733777 C19.6944811,34.7733777 17.3279946,33.8723724 15.5264974,32.071132 C13.7812168,30.3255947 12.8198878,28.0050569 12.8198878,25.5369185 C12.8198878,23.0685234 13.7812168,20.7477289 15.5264974,19.0021916 C15.7267208,18.8017115 16.0522122,18.8017115 16.2524356,19.0021916 C16.4529157,19.2026717 16.4529157,19.5276497 16.2524356,19.7281298 C14.7012177,21.2798611 13.8466745,23.3426754 13.8466745,25.5369185 C13.8466745,27.7309048 14.7012177,29.7937192 16.2526923,31.3451938 C19.4554965,34.5477414 24.6669521,34.5477414 27.8694996,31.3451938 C31.0720472,28.1421329 31.0720472,22.930934 27.8694996,19.7283865 C26.3177683,18.1769119 24.254954,17.3223687 22.0609676,17.3223687 C21.7775745,17.3223687 21.5475743,17.0923685 21.5475743,16.8089754 C21.5475743,16.5255822 21.7775745,16.295582 22.0609676,16.295582 C24.529106,16.295582 26.8499005,17.256911 28.5954378,19.0021916 C32.1984321,22.6051859 32.1984321,28.467881 28.5954378,32.071132 C26.7939406,33.8726291 24.4274541,34.7733777 22.0609676,34.7733777 Z M22.0609676,32.2074379 C20.3518812,32.2074379 18.6427949,31.5569686 17.3415995,30.2557732 C16.0812189,28.9953926 15.3868544,27.3191634 15.3868544,25.5366618 C15.3868544,25.2532687 15.6168547,25.0232685 15.9002478,25.0232685 C16.1836409,25.0232685 16.4136411,25.2532687 16.4136411,25.5366618 C16.4136411,27.0447547 17.0012197,28.4632604 18.0675377,29.529835 C20.2692249,31.7312656 23.8516835,31.7315223 26.0541409,29.529835 C28.2558281,27.3278911 28.2558281,23.7449191 26.0541409,21.5432319 C24.9875662,20.4769139 23.5693172,19.8893353 22.0609676,19.8893353 C21.7775745,19.8893353 21.5475743,19.6593351 21.5475743,19.375942 C21.5475743,19.0925488 21.7775745,18.8625486 22.0609676,18.8625486 C23.8434692,18.8625486 25.5196984,19.5569131 26.7803357,20.8172937 C29.3824698,23.4194277 29.3824698,27.6536392 26.7803357,30.2560299 C25.4791403,31.5569686 23.770054,32.2074379 22.0609676,32.2074379 Z M22.0609676,29.6438084 C20.9638461,29.6438084 19.9324389,29.2166651 19.1569583,28.4406711 C18.9564782,28.240191 18.9564782,27.9152131 19.1569583,27.714733 C19.3574384,27.5142529 19.6826731,27.5142529 19.8828965,27.714733 C20.4645711,28.2966643 21.2382548,28.6170217 22.0609676,28.6170217 C22.8836804,28.6170217 23.6573641,28.2966643 24.2390388,27.714733 C24.8207134,27.1328016 25.1413275,26.3593746 25.1413275,25.5366618 C25.1413275,24.713949 24.8209701,23.9402653 24.2390388,23.3585906 C23.6571074,22.776916 22.8836804,22.4563019 22.0609676,22.4563019 C21.7775745,22.4563019 21.5475743,22.2263017 21.5475743,21.9429086 C21.5475743,21.6595154 21.7775745,21.4295152 22.0609676,21.4295152 C23.1583458,21.4295152 24.1894963,21.8569152 24.9652336,22.6326525 C25.7409709,23.4081331 26.1681142,24.4395403 26.1681142,25.5366618 C26.1681142,26.6337833 25.7409709,27.6651905 24.9649769,28.4406711 C24.1894963,29.2166651 23.1580891,29.6438084 22.0609676,29.6438084 Z" fill="url(#linearGradient-3)"></path>
        </g>
    </g>
</svg>