<svg width="55" height="55" viewBox="0 0 55 55" xmlns="http://www.w3.org/2000/svg" xmlns:xlink="http://www.w3.org/1999/xlink"><title>25E37A57-6F5D-45F8-B23F-85C4FC3C185E</title><defs><path d="M16.895 3.109c.959-.553 2.513-.553 3.472 0l15.159 8.74c.959.553 1.736 1.897 1.736 3.003v17.48c0 1.106-.777 2.45-1.736 3.004l-15.16 8.74c-.958.553-2.512.553-3.471 0l-15.159-8.74C.777 34.783 0 33.439 0 32.333v-17.48c0-1.107.777-2.45 1.736-3.004l15.159-8.74z" id="b"/><filter x="-50%" y="-50%" width="200%" height="200%" filterUnits="objectBoundingBox" id="a"><feMorphology radius=".5" operator="dilate" in="SourceAlpha" result="shadowSpreadOuter1"/><feOffset dx="1" dy="1" in="shadowSpreadOuter1" result="shadowOffsetOuter1"/><feGaussianBlur stdDeviation="1.5" in="shadowOffsetOuter1" result="shadowBlurOuter1"/><feColorMatrix values="0 0 0 0 0 0 0 0 0 0 0 0 0 0 0 0 0 0 0.303810009 0" in="shadowBlurOuter1"/></filter><linearGradient x1="50%" y1="104.533%" x2="15.805%" y2="32.426%" id="d"><stop stop-color="#19242C" offset="0%"/><stop stop-color="#2A3B48" offset="100%"/></linearGradient><path d="M16.895 1.09c.959-.554 2.513-.554 3.472 0l15.159 8.74c.959.552 1.736 1.896 1.736 3.002v17.48c0 1.107-.777 2.45-1.736 3.004l-15.16 8.74c-.958.553-2.512.553-3.471 0l-15.159-8.74C.777 32.763 0 31.419 0 30.313v-17.48c0-1.106.777-2.45 1.736-3.004l15.159-8.74z" id="c"/><path d="M42.165 10.214v-.358c0-1.114-.775-2.456-1.73-3.01L20.36-4.792c-.947-.55-2.505-.554-3.46 0L-3.173 6.846c-.948.55-1.73 1.902-1.73 3.01v23.278c0 1.114.774 2.456 1.73 3.01l.8.464C3.402 20.932 18.42 9.757 36.038 9.757c2.082 0 4.128.156 6.127.457z" id="g"/><filter x="-50%" y="-50%" width="200%" height="200%" filterUnits="objectBoundingBox" id="f"><feOffset dy="2" in="SourceAlpha" result="shadowOffsetOuter1"/><feGaussianBlur stdDeviation="12" in="shadowOffsetOuter1" result="shadowBlurOuter1"/><feColorMatrix values="0 0 0 0 0.0901960784 0 0 0 0 0.129411765 0 0 0 0 0.156862745 0 0 0 0.6 0" in="shadowBlurOuter1"/></filter><linearGradient x1="50%" y1="0%" x2="50%" y2="100%" id="j"><stop stop-color="#B76AFF" offset="0%"/><stop stop-color="#8645E8" offset="100%"/></linearGradient><path d="M8.023.052a.544.544 0 0 0-.519.535V1.83a6.122 6.122 0 0 0-5.562 5.563H.644a.545.545 0 0 0-.497.551c.015.274.277.51.551.496h1.244a6.122 6.122 0 0 0 5.562 5.563v1.244a.547.547 0 0 0 .524.534.547.547 0 0 0 .524-.534v-1.244a6.122 6.122 0 0 0 5.563-5.563h1.243a.543.543 0 0 0 .53-.523.543.543 0 0 0-.53-.524h-1.243A6.122 6.122 0 0 0 8.552 1.83V.587a.545.545 0 0 0-.53-.535zm.005 2.804a5.053 5.053 0 0 1 5.061 5.06 5.053 5.053 0 0 1-5.06 5.062 5.053 5.053 0 0 1-5.062-5.061 5.053 5.053 0 0 1 5.061-5.061zm0 3.316c-.958 0-1.745.787-1.745 1.745 0 .957.787 1.745 1.745 1.745.958 0 1.745-.788 1.745-1.745 0-.958-.787-1.745-1.745-1.745zm0 1.047a.69.69 0 0 1 .698.698.69.69 0 0 1-.698.698.69.69 0 0 1-.698-.698.69.69 0 0 1 .698-.698z" id="i"/><filter x="-50%" y="-50%" width="200%" height="200%" filterUnits="objectBoundingBox" id="h"><feMorphology radius=".5" operator="dilate" in="SourceAlpha" result="shadowSpreadOuter1"/><feOffset dy="3" in="shadowSpreadOuter1" result="shadowOffsetOuter1"/><feGaussianBlur stdDeviation="10.5" in="shadowOffsetOuter1" result="shadowBlurOuter1"/><feColorMatrix values="0 0 0 0 0.6 0 0 0 0 0.270588235 0 0 0 0 0.909803922 0 0 0 0.686707428 0" in="shadowBlurOuter1"/></filter></defs><g fill="none" fill-rule="evenodd"><g transform="translate(8.576 2.16)"><use fill="#000" filter="url(#a)" xlink:href="#b"/><use fill="#141C22" xlink:href="#b"/><mask id="e" fill="#fff"><use xlink:href="#c"/></mask><use stroke="#7F48CE" stroke-width="2" fill="url(#d)" xlink:href="#c"/><g opacity=".516" style="mix-blend-mode:soft-light" mask="url(#e)"><use fill="#000" filter="url(#f)" xlink:href="#g"/><use fill="#FFF" xlink:href="#g"/></g></g><g transform="translate(19.396 16.456)"><use fill="#000" filter="url(#h)" xlink:href="#i"/><use fill="url(#j)" xlink:href="#i"/></g></g></svg>