<?xml version="1.0" encoding="UTF-8" standalone="no"?>
<svg width="25px" height="19px" viewBox="0 0 25 19" version="1.1" xmlns="http://www.w3.org/2000/svg" xmlns:xlink="http://www.w3.org/1999/xlink">
    <!-- Generator: Sketch 41.2 (35397) - http://www.bohemiancoding.com/sketch -->
    <title>lunch</title>
    <desc>Created with Sketch.</desc>
    <defs></defs>
    <g stroke="none" stroke-width="1" fill="none" fill-rule="evenodd">
        <g fill="#FEAB1C">
            <g>
                <ellipse cx="2.92021739" cy="7.53308696" rx="0.386608696" ry="0.386608696"></ellipse>
                <path d="M24.7132174,3.8313913 C24.7074348,2.18334783 23.6632609,1.01691304 22.4001739,0.857478261 L15.7435652,0.0214782609 C15.3569565,-0.0644347826 14.7712609,0.137956522 14.7712609,0.137956522 C14.7696087,0.137956522 14.3226957,0.290782609 13.5982174,0.537782609 C14.7646522,0.695565217 16.2441739,0.902913043 17.7261739,1.13504348 C18.5258261,1.25978261 19.3263043,1.38452174 20.0763913,1.501 C20.4596957,1.56873913 20.795913,1.59517391 21.175087,1.69017391 C21.5542609,1.78682609 21.8995652,1.9826087 22.1391304,2.23952174 C22.3795217,2.49808696 22.4893913,2.79795652 22.5596087,3.04826087 C22.619913,3.306 22.6422174,3.52904348 22.6356087,3.7116087 C22.6364348,4.07591304 22.5901739,4.27747826 22.5901739,4.27747826 C22.5901739,4.27747826 22.5802609,4.22708696 22.562087,4.13208696 C22.543913,4.03873913 22.5232609,3.9016087 22.4761739,3.73308696 C22.3836522,3.40430435 22.2366087,2.89956522 21.8260435,2.56582609 C21.6261304,2.4006087 21.3634348,2.28908696 21.0602609,2.24778261 C20.7207391,2.21143478 20.3622174,2.17178261 19.9921304,2.13130435 C19.237913,2.04869565 18.4333043,1.95947826 17.6286957,1.87191304 C15.2603043,1.61169565 12.9043043,1.29530435 11.8213043,1.14578261 C11.2207391,1.35065217 10.5606957,1.577 9.87669565,1.8116087 C11.0084348,1.96526087 12.4028696,2.16269565 13.794,2.37995652 C14.5944783,2.50386957 15.3949565,2.6286087 16.1442174,2.74508696 C16.5275217,2.81365217 16.8637391,2.83926087 17.2445652,2.93426087 C17.622913,3.03173913 17.9682174,3.22752174 18.2069565,3.48443478 C18.4473478,3.74217391 18.5580435,4.04204348 18.6282609,4.29317391 C18.6885652,4.55008696 18.7116957,4.77313043 18.7042609,4.95652174 C18.705087,5.32 18.6596522,5.52156522 18.6596522,5.52156522 C18.6596522,5.52156522 18.648913,5.47117391 18.6307391,5.377 C18.6125652,5.28365217 18.591913,5.14569565 18.5448261,4.97717391 C18.4539565,4.64921739 18.306087,4.14447826 17.8946957,3.80991304 C17.6947826,3.64469565 17.432913,3.534 17.128913,3.49269565 C16.7902174,3.45552174 16.4325217,3.41669565 16.0616087,3.3753913 C15.3082174,3.29195652 14.5019565,3.2043913 13.6981739,3.11682609 C11.4743478,2.87230435 9.2596087,2.57821739 8.1006087,2.41878261 C7.31665217,2.6856087 6.53847826,2.95078261 5.8073913,3.20191304 C6.9606087,3.35721739 8.40295652,3.56043478 9.84530435,3.78513043 C10.6449565,3.90986957 11.4454348,4.03543478 12.1955217,4.15191304 C12.578,4.21965217 12.9150435,4.24526087 13.2942174,4.34108696 C13.6725652,4.43773913 14.0186957,4.63352174 14.2574348,4.89043478 C14.4986522,5.14817391 14.6085217,5.44804348 14.6787391,5.69917391 C14.7390435,5.95608696 14.7613478,6.17913043 14.7547391,6.36252174 C14.7555652,6.72682609 14.7093043,6.92756522 14.7093043,6.92756522 C14.7093043,6.92756522 14.6993913,6.87717391 14.6812174,6.783 C14.6630435,6.68965217 14.6423913,6.55169565 14.5953043,6.38317391 C14.5027826,6.05521739 14.3565652,5.55047826 13.9443478,5.21673913 C13.7452609,5.05152174 13.4825652,4.94 13.1793913,4.89869565 C12.8398696,4.86152174 12.4813478,4.82186957 12.1112609,4.78221739 C11.3570435,4.69878261 10.5524348,4.6103913 9.74782609,4.522 C7.44221739,4.2683913 5.14982609,3.96273913 4.03130435,3.80826087 C2.68065217,4.27004348 1.75626087,4.58643478 1.75626087,4.58643478 C1.42913043,4.70373913 1.11769565,4.89952174 0.847565217,5.16882609 C0.318043478,5.70165217 0.0156956522,6.45834783 0.0173478261,7.24478261 C0.0173478261,7.24478261 -0.227173913,9.5313913 1.10778261,10.1195652 L1.15817391,16.5159565 C1.16065217,16.8496957 1.41095652,17.1297391 1.74221739,17.1710435 L10.3698696,18.2441304 C10.6466087,18.2788261 10.9266522,18.2515652 11.191,18.1648261 L23.2708696,14.1979565 C23.541,14.1095652 23.7252174,13.8584348 23.7293478,13.5734348 L23.8185652,6.89947826 C24.8090435,6.67230435 24.7132174,3.8313913 24.7132174,3.8313913 Z M10.2955217,8.9176087 C10.184,10.2814783 9.2216087,10.5491304 9.2216087,10.5491304 L9.2273913,12.0782174 C9.18030435,12.0699565 9.139,12.0509565 9.08943478,12.0509565 C8.6326087,12.0509565 8.26334783,12.4202174 8.26334783,12.8770435 C8.26334783,13.3338696 8.6326087,13.7031304 9.08943478,13.7031304 C9.14065217,13.7031304 9.18443478,13.6833043 9.23317391,13.6742174 L9.24308696,16.3036522 C9.19517391,16.2796957 9.14395652,16.2606957 9.08613043,16.2606957 C8.89530435,16.2606957 8.74082609,16.416 8.74082609,16.6076522 C8.74082609,16.6580435 8.7523913,16.7051304 8.7713913,16.7472609 L4.46582609,16.2061739 C4.60791304,16.112 4.70704348,15.9575217 4.70704348,15.7733043 C4.70704348,15.4808696 4.47078261,15.2437826 4.17834783,15.2437826 C3.88591304,15.2437826 3.64882609,15.4808696 3.64882609,15.7733043 C3.64882609,15.9079565 3.70169565,16.0285652 3.78430435,16.121087 L2.43365217,15.950913 L2.42786957,14.5201304 C2.44604348,14.5209565 2.46173913,14.5308696 2.47991304,14.5308696 C2.93673913,14.5308696 3.306,14.1616087 3.306,13.7047826 C3.306,13.2479565 2.93673913,12.8786957 2.47991304,12.8786957 C2.45926087,12.8786957 2.44191304,12.8894348 2.42208696,12.891087 L2.40886957,9.51156522 C2.40886957,9.51156522 1.1466087,9.03904348 1.2416087,7.41 C1.2416087,7.41 1.40104348,5.81317391 2.53030435,5.77186957 L4.19073913,5.98086957 C4.15686957,6.07091304 4.13291304,6.1683913 4.13291304,6.27082609 C4.13291304,6.72765217 4.50217391,7.09691304 4.959,7.09691304 C5.41582609,7.09691304 5.78508696,6.72765217 5.78508696,6.27082609 C5.78508696,6.2386087 5.77021739,6.21134783 5.76691304,6.17995652 L9.16047826,6.60704348 C9.07786957,6.68386957 9.02417391,6.79291304 9.02417391,6.916 C9.02417391,7.15143478 9.21582609,7.34391304 9.45291304,7.34391304 C9.62886957,7.34391304 9.77921739,7.23817391 9.84530435,7.087 C10.5028696,7.56695652 10.2955217,8.9176087 10.2955217,8.9176087 Z"></path>
                <ellipse cx="5.37204348" cy="9.15882609" rx="0.413043478" ry="0.413043478"></ellipse>
                <ellipse cx="4.959" cy="12.0501304" rx="0.826086957" ry="0.826086957"></ellipse>
                <circle cx="7.85030435" cy="8.33273913" r="0.413043478"></circle>
                <ellipse cx="7.02421739" cy="12.4631739" rx="0.413043478" ry="0.413043478"></ellipse>
                <ellipse cx="6.61117391" cy="14.5283913" rx="0.826086957" ry="0.826086957"></ellipse>
                <ellipse cx="3.71986957" cy="9.98491304" rx="0.413043478" ry="0.413043478"></ellipse>
            </g>
        </g>
    </g>
</svg>