<?xml version="1.0" encoding="UTF-8" standalone="no"?>
<svg width="44px" height="50px" viewBox="0 0 44 50" version="1.1" xmlns="http://www.w3.org/2000/svg" xmlns:xlink="http://www.w3.org/1999/xlink">
    <!-- Generator: Sketch 41.2 (35397) - http://www.bohemiancoding.com/sketch -->
    <title>red pressed</title>
    <desc>Created with Sketch.</desc>
    <defs>
        <path d="M20.2736969,0.409278082 C21.2271078,-0.145323561 22.7700919,-0.146952507 23.7263031,0.409278082 L42.2736969,11.1983464 C43.2271078,11.752948 44,13.0984705 44,14.2109317 L44,35.7890683 C44,36.8982716 43.2299081,38.245423 42.2736969,38.8016536 L23.7263031,49.5907219 C22.7728922,50.1453236 21.2299081,50.1469525 20.2736969,49.5907219 L1.7263031,38.8016536 C0.772892225,38.247052 -2.93098879e-14,36.9015295 -3.06421555e-14,35.7890683 L-4.21884749e-14,14.2109317 C-4.26325641e-14,13.1017284 0.770091917,11.754577 1.7263031,11.1983464 L20.2736969,0.409278082 Z" id="path-1"></path>
        <filter x="-50%" y="-50%" width="200%" height="200%" filterUnits="objectBoundingBox" id="filter-2">
            <feGaussianBlur stdDeviation="0.5" in="SourceAlpha" result="shadowBlurInner1"></feGaussianBlur>
            <feOffset dx="0" dy="-1" in="shadowBlurInner1" result="shadowOffsetInner1"></feOffset>
            <feComposite in="shadowOffsetInner1" in2="SourceAlpha" operator="arithmetic" k2="-1" k3="1" result="shadowInnerInner1"></feComposite>
            <feColorMatrix values="0 0 0 0 1   0 0 0 0 1   0 0 0 0 1  0 0 0 0.179630888 0" type="matrix" in="shadowInnerInner1"></feColorMatrix>
        </filter>
        <linearGradient x1="50%" y1="0%" x2="50%" y2="100%" id="linearGradient-3">
            <stop stop-color="#FD6882" offset="0%"></stop>
            <stop stop-color="#E3405D" offset="100%"></stop>
        </linearGradient>
    </defs>
    <g stroke="none" stroke-width="1" fill="none" fill-rule="evenodd">
        <g>
            <g opacity="0.600000024">
                <use fill-opacity="0.100000001" fill="#000000" fill-rule="evenodd" xlink:href="#path-1"></use>
                <use fill="black" fill-opacity="1" filter="url(#filter-2)" xlink:href="#path-1"></use>
                <use stroke-opacity="0.101251132" stroke="#000000" stroke-width="1" xlink:href="#path-1"></use>
            </g>
            <path d="M14,30.1014865 C14,29.6953199 14.3278544,29.3660568 14.7264205,29.3660568 L29.6865028,29.3660568 C30.0876937,29.3660568 30.4129233,29.6924882 30.4129233,30.1014865 C30.4129233,30.5076531 30.0850689,30.8369162 29.6865028,30.8369162 L14.7264205,30.8369162 C14.3252295,30.8369162 14,30.5104848 14,30.1014865 Z M16.1595952,26.6461342 C16.1595952,26.2399676 16.4830733,25.9107045 16.8979073,25.9107045 L27.515016,25.9107045 C27.9227745,25.9107045 28.2533281,26.2371359 28.2533281,26.6461342 C28.2533281,27.0523009 27.92985,27.3815639 27.515016,27.3815639 L16.8979073,27.3815639 C16.4901488,27.3815639 16.1595952,27.0551326 16.1595952,26.6461342 Z M18.3191903,23.190782 C18.3191903,22.7846154 18.6532527,22.4553523 19.0506004,22.4553523 L25.3623228,22.4553523 C25.7662695,22.4553523 26.0937329,22.7817836 26.0937329,23.190782 C26.0937329,23.5969486 25.7596706,23.9262117 25.3623228,23.9262117 L19.0506004,23.9262117 C18.6466538,23.9262117 18.3191903,23.5997803 18.3191903,23.190782 Z M20.4787855,19.7354297 C20.4787855,19.3292631 20.8100992,19 21.2115768,19 L23.2013464,19 C23.6060559,19 23.9341378,19.3264314 23.9341378,19.7354297 C23.9341378,20.1415963 23.6028241,20.4708594 23.2013464,20.4708594 L21.2115768,20.4708594 C20.8068674,20.4708594 20.4787855,20.144428 20.4787855,19.7354297 Z" fill="url(#linearGradient-3)"></path>
        </g>
    </g>
</svg>