<svg width="59" height="59" viewBox="0 0 59 59" xmlns="http://www.w3.org/2000/svg" xmlns:xlink="http://www.w3.org/1999/xlink"><title>2CFD8792-4FE9-4DD8-816A-5EB9E9F97ECC</title><defs><path d="M16.895 3.109c.959-.553 2.513-.553 3.472 0l15.159 8.74c.959.553 1.736 1.897 1.736 3.003v17.48c0 1.106-.777 2.45-1.736 3.004l-15.16 8.74c-.958.553-2.512.553-3.471 0l-15.159-8.74C.777 34.783 0 33.439 0 32.333v-17.48c0-1.107.777-2.45 1.736-3.004l15.159-8.74z" id="b"/><filter x="-50%" y="-50%" width="200%" height="200%" filterUnits="objectBoundingBox" id="a"><feMorphology radius=".5" operator="dilate" in="SourceAlpha" result="shadowSpreadOuter1"/><feOffset dx="1" dy="1" in="shadowSpreadOuter1" result="shadowOffsetOuter1"/><feGaussianBlur stdDeviation="1.5" in="shadowOffsetOuter1" result="shadowBlurOuter1"/><feColorMatrix values="0 0 0 0 0 0 0 0 0 0 0 0 0 0 0 0 0 0 0.303810009 0" in="shadowBlurOuter1"/></filter><linearGradient x1="50%" y1="104.533%" x2="15.805%" y2="32.426%" id="d"><stop stop-color="#19242C" offset="0%"/><stop stop-color="#2A3B48" offset="100%"/></linearGradient><path d="M16.895 1.09c.959-.554 2.513-.554 3.472 0l15.159 8.74c.959.552 1.736 1.896 1.736 3.002v17.48c0 1.107-.777 2.45-1.736 3.004l-15.16 8.74c-.958.553-2.512.553-3.471 0l-15.159-8.74C.777 32.763 0 31.419 0 30.313v-17.48c0-1.106.777-2.45 1.736-3.004l15.159-8.74z" id="c"/><path d="M42.165 10.214v-.358c0-1.114-.775-2.456-1.73-3.01L20.36-4.792c-.947-.55-2.505-.554-3.46 0L-3.173 6.846c-.948.55-1.73 1.902-1.73 3.01v23.278c0 1.114.774 2.456 1.73 3.01l.8.464C3.402 20.932 18.42 9.757 36.038 9.757c2.082 0 4.128.156 6.127.457z" id="g"/><filter x="-50%" y="-50%" width="200%" height="200%" filterUnits="objectBoundingBox" id="f"><feOffset dy="2" in="SourceAlpha" result="shadowOffsetOuter1"/><feGaussianBlur stdDeviation="12" in="shadowOffsetOuter1" result="shadowBlurOuter1"/><feColorMatrix values="0 0 0 0 0.0901960784 0 0 0 0 0.129411765 0 0 0 0 0.156862745 0 0 0 0.6 0" in="shadowBlurOuter1"/></filter><linearGradient x1="50%" y1="0%" x2="50%" y2="100%" id="j"><stop stop-color="#68B9FF" offset="0%"/><stop stop-color="#1F75EB" offset="98.438%"/></linearGradient><path d="M18.148 8.943c-.005-.017-.009-.034-.015-.05-.008-.018-.018-.034-.027-.05-.007-.013-.012-.025-.02-.037a.499.499 0 0 0-.063-.078l-1.784-1.784a.504.504 0 1 0-.714.714l.923.923h-4.89A2.531 2.531 0 0 0 9.59 6.613v-4.89l.923.923a.503.503 0 0 0 .714 0 .504.504 0 0 0 0-.713L9.443.148a.508.508 0 0 0-.078-.063C9.353.077 9.34.071 9.328.065c-.017-.01-.032-.02-.05-.026-.016-.007-.033-.01-.05-.016-.015-.004-.029-.01-.044-.013a.509.509 0 0 0-.197 0c-.016.003-.03.009-.044.013-.017.005-.034.009-.05.016-.018.007-.033.017-.05.026-.012.006-.025.012-.037.02a.508.508 0 0 0-.078.063L6.944 1.932a.504.504 0 1 0 .714.714l.923-.923v4.89A2.531 2.531 0 0 0 6.612 8.58H1.723l.923-.923a.504.504 0 1 0-.713-.714L.148 8.728a.508.508 0 0 0-.063.078c-.008.012-.013.024-.02.037-.01.016-.019.032-.026.05-.007.016-.01.033-.016.05-.004.015-.01.029-.013.044a.509.509 0 0 0 0 .197c.003.016.009.03.013.044l.016.05c.007.018.017.034.026.05.007.013.012.026.02.038.019.027.04.054.064.077l1.784 1.784a.503.503 0 0 0 .714 0 .504.504 0 0 0 0-.714l-.924-.923h4.89c.201.988.98 1.767 1.968 1.968v4.89l-.923-.923a.504.504 0 1 0-.714.713l1.784 1.784c.024.024.05.045.078.064.012.008.025.013.037.02.017.01.032.02.05.026.016.007.033.01.05.016.015.004.029.01.044.013a.478.478 0 0 0 .197 0c.015-.003.03-.008.044-.013.017-.005.034-.009.05-.015.018-.008.034-.017.05-.026l.037-.02a.49.49 0 0 0 .078-.064l1.784-1.784a.504.504 0 1 0-.714-.714l-.923.923v-4.89a2.531 2.531 0 0 0 1.968-1.968h4.89l-.923.923a.504.504 0 1 0 .714.714l1.784-1.784a.508.508 0 0 0 .063-.078c.008-.011.013-.024.02-.036.01-.017.02-.033.026-.05.007-.017.01-.034.016-.05.004-.015.01-.03.013-.045a.509.509 0 0 0 0-.197c-.003-.016-.009-.03-.013-.044zM9.086 10.6c-.836 0-1.515-.68-1.515-1.514a1.516 1.516 0 0 1 3.029 0c0 .835-.68 1.514-1.514 1.514z" id="i"/><filter x="-50%" y="-50%" width="200%" height="200%" filterUnits="objectBoundingBox" id="h"><feMorphology radius=".5" operator="dilate" in="SourceAlpha" result="shadowSpreadOuter1"/><feOffset dy="3" in="shadowSpreadOuter1" result="shadowOffsetOuter1"/><feGaussianBlur stdDeviation="10.5" in="shadowOffsetOuter1" result="shadowBlurOuter1"/><feColorMatrix values="0 0 0 0 0.196078431 0 0 0 0 0.623529412 0 0 0 0 1 0 0 0 0.470250226 0" in="shadowBlurOuter1"/></filter></defs><g fill="none" fill-rule="evenodd"><g transform="translate(10.576 4.16)"><use fill="#000" filter="url(#a)" xlink:href="#b"/><use fill="#141C22" xlink:href="#b"/><mask id="e" fill="#fff"><use xlink:href="#c"/></mask><use fill="url(#d)" xlink:href="#c"/><g opacity=".516" style="mix-blend-mode:soft-light" mask="url(#e)"><use fill="#000" filter="url(#f)" xlink:href="#g"/><use fill="#FFF" xlink:href="#g"/></g></g><g transform="translate(20.396 17.456)"><use fill="#000" filter="url(#h)" xlink:href="#i"/><use fill="url(#j)" xlink:href="#i"/></g></g></svg>