<svg width="44" height="50" viewBox="0 0 44 50" xmlns="http://www.w3.org/2000/svg" xmlns:xlink="http://www.w3.org/1999/xlink"><title>blue hover</title><defs><path d="M20.274.41c.953-.555 2.496-.557 3.452 0l18.548 10.788c.953.555 1.726 1.9 1.726 3.013v21.578c0 1.11-.77 2.456-1.726 3.013L23.726 49.59c-.953.554-2.496.556-3.452 0L1.726 38.8C.773 38.248 0 36.902 0 35.79V14.211c0-1.11.77-2.456 1.726-3.013L20.274.41z" id="a"/><filter x="-50%" y="-50%" width="200%" height="200%" filterUnits="objectBoundingBox" id="b"><feGaussianBlur stdDeviation=".5" in="SourceAlpha" result="shadowBlurInner1"/><feOffset dy="-1" in="shadowBlurInner1" result="shadowOffsetInner1"/><feComposite in="shadowOffsetInner1" in2="SourceAlpha" operator="arithmetic" k2="-1" k3="1" result="shadowInnerInner1"/><feColorMatrix values="0 0 0 0 1 0 0 0 0 1 0 0 0 0 1 0 0 0 0.179630888 0" in="shadowInnerInner1"/></filter><path d="M16.895 3.109c.959-.553 2.513-.553 3.472 0l15.159 8.74c.959.553 1.736 1.897 1.736 3.003v17.48c0 1.106-.777 2.45-1.736 3.004l-15.16 8.74c-.958.553-2.512.553-3.471 0l-15.159-8.74C.777 34.783 0 33.439 0 32.333v-17.48c0-1.107.777-2.45 1.736-3.004l15.159-8.74z" id="d"/><filter x="-50%" y="-50%" width="200%" height="200%" filterUnits="objectBoundingBox" id="c"><feMorphology radius=".5" operator="dilate" in="SourceAlpha" result="shadowSpreadOuter1"/><feOffset dx="1" dy="1" in="shadowSpreadOuter1" result="shadowOffsetOuter1"/><feGaussianBlur stdDeviation="1.5" in="shadowOffsetOuter1" result="shadowBlurOuter1"/><feColorMatrix values="0 0 0 0 0 0 0 0 0 0 0 0 0 0 0 0 0 0 0.303810009 0" in="shadowBlurOuter1"/></filter><linearGradient x1="50%" y1="104.533%" x2="15.805%" y2="32.426%" id="f"><stop stop-color="#19242C" offset="0%"/><stop stop-color="#2A3B48" offset="100%"/></linearGradient><path d="M16.895 1.09c.959-.554 2.513-.554 3.472 0l15.159 8.74c.959.552 1.736 1.896 1.736 3.002v17.48c0 1.107-.777 2.45-1.736 3.004l-15.16 8.74c-.958.553-2.512.553-3.471 0l-15.159-8.74C.777 32.763 0 31.419 0 30.313v-17.48c0-1.106.777-2.45 1.736-3.004l15.159-8.74z" id="e"/><path d="M42.165 10.214v-.358c0-1.114-.775-2.456-1.73-3.01L20.36-4.792c-.947-.55-2.505-.554-3.46 0L-3.173 6.846c-.948.55-1.73 1.902-1.73 3.01v23.278c0 1.114.774 2.456 1.73 3.01l.8.464C3.402 20.932 18.42 9.757 36.038 9.757c2.082 0 4.128.156 6.127.457z" id="i"/><filter x="-50%" y="-50%" width="200%" height="200%" filterUnits="objectBoundingBox" id="h"><feOffset dy="2" in="SourceAlpha" result="shadowOffsetOuter1"/><feGaussianBlur stdDeviation="12" in="shadowOffsetOuter1" result="shadowBlurOuter1"/><feColorMatrix values="0 0 0 0 0.0901960784 0 0 0 0 0.129411765 0 0 0 0 0.156862745 0 0 0 0.6 0" in="shadowBlurOuter1"/></filter><linearGradient x1="50%" y1="0%" x2="50%" y2="98.438%" id="l"><stop stop-color="#68B9FF" offset="0%"/><stop stop-color="#1F75EB" offset="100%"/></linearGradient><path d="M18.147 8.942a.288.288 0 0 0-.015-.05c-.007-.017-.017-.033-.027-.05-.006-.012-.012-.025-.02-.036a.499.499 0 0 0-.063-.078l-1.784-1.784a.504.504 0 1 0-.714.714l.923.923h-4.89A2.531 2.531 0 0 0 9.59 6.612V1.723l.923.923a.503.503 0 0 0 .713 0 .504.504 0 0 0 0-.714L9.442.148a.508.508 0 0 0-.077-.063.198.198 0 0 0-.038-.02.3.3 0 0 0-.05-.027c-.016-.007-.033-.01-.05-.015C9.213.018 9.2.013 9.184.01a.509.509 0 0 0-.198 0 .32.32 0 0 0-.044.013c-.017.005-.034.008-.05.015l-.05.026-.037.02a.508.508 0 0 0-.078.064L6.943 1.932a.504.504 0 1 0 .714.714l.923-.923v4.89A2.531 2.531 0 0 0 6.612 8.58h-4.89l.924-.923a.504.504 0 1 0-.714-.713L.148 8.728a.508.508 0 0 0-.064.077l-.02.037c-.009.017-.019.033-.026.05-.007.016-.01.034-.015.05-.005.015-.01.03-.013.044a.509.509 0 0 0 0 .198.32.32 0 0 0 .013.044c.005.017.008.034.015.05.008.018.018.034.026.05l.02.037c.02.028.04.054.064.078l1.784 1.784a.503.503 0 0 0 .714 0 .504.504 0 0 0 0-.714l-.923-.923h4.89c.2.987.98 1.767 1.967 1.968v4.89l-.923-.924a.504.504 0 1 0-.713.714l1.784 1.784c.023.024.05.045.077.063.012.009.025.014.038.02.016.01.032.02.049.027.016.007.033.01.05.015.015.005.03.01.044.013a.478.478 0 0 0 .198 0c.015-.002.029-.008.043-.012.017-.005.034-.009.051-.016.017-.007.033-.017.05-.026.012-.007.025-.012.037-.02a.49.49 0 0 0 .077-.064l1.784-1.784a.504.504 0 1 0-.713-.713l-.923.922v-4.889a2.531 2.531 0 0 0 1.968-1.968h4.89l-.924.923a.504.504 0 1 0 .714.713l1.784-1.783a.508.508 0 0 0 .063-.078c.008-.012.014-.025.02-.037a.3.3 0 0 0 .027-.05c.006-.016.01-.033.015-.05.005-.015.01-.029.013-.044a.509.509 0 0 0 0-.198c-.002-.015-.008-.03-.013-.044zM9.085 10.6c-.835 0-1.514-.679-1.514-1.514s.679-1.514 1.514-1.514 1.514.68 1.514 1.514c0 .835-.679 1.514-1.514 1.514z" id="k"/><filter x="-50%" y="-50%" width="200%" height="200%" filterUnits="objectBoundingBox" id="j"><feMorphology radius=".5" operator="dilate" in="SourceAlpha" result="shadowSpreadOuter1"/><feOffset dy="3" in="shadowSpreadOuter1" result="shadowOffsetOuter1"/><feGaussianBlur stdDeviation="10.5" in="shadowOffsetOuter1" result="shadowBlurOuter1"/><feColorMatrix values="0 0 0 0 0.196078431 0 0 0 0 0.623529412 0 0 0 0 1 0 0 0 0.470250226 0" in="shadowBlurOuter1"/></filter></defs><g fill="none" fill-rule="evenodd"><g opacity=".6"><use fill-opacity=".1" fill="#000" xlink:href="#a"/><use fill="#000" filter="url(#b)" xlink:href="#a"/><use stroke-opacity=".101" stroke="#000" xlink:href="#a"/></g><g transform="translate(3 3)"><use fill="#000" filter="url(#c)" xlink:href="#d"/><use fill="#141C22" xlink:href="#d"/><mask id="g" fill="#fff"><use xlink:href="#e"/></mask><use stroke="#68B9FF" stroke-width="2" fill="url(#f)" xlink:href="#e"/><g opacity=".516" style="mix-blend-mode:soft-light" mask="url(#g)"><use fill="#000" filter="url(#h)" xlink:href="#i"/><use fill="#FFF" xlink:href="#i"/></g></g><g transform="translate(12.82 16.296)"><use fill="#000" filter="url(#j)" xlink:href="#k"/><use fill="url(#l)" xlink:href="#k"/></g></g></svg>