<svg width="19" height="21" viewBox="0 0 19 21" xmlns="http://www.w3.org/2000/svg"><title>breakfast</title><path d="M18.173 5.447C18.173 2.654 16.512 0 15.01 0h-.014c-1.501 0-3.165 2.654-3.165 5.447 0 2.296 1.124 3.676 2.359 4.086.028.126.016.277.014.368l-.34 10.246c-.014.43.326.853.757.853h.76c.432 0 .773-.416.759-.847l-.341-10.234c-.003-.092-.014-.256.014-.382 1.235-.41 2.36-1.793 2.36-4.09zM10.271 10.5a7.105 7.105 0 0 0 .229-1.798C10.5 5.417 8.306 1.4 5.6 1.4 2.894 1.4.7 5.417.7 8.702c0 .627.08 1.23.229 1.798h9.342zM1.4 19.6A1.4 1.4 0 0 0 0 21h11.2a1.4 1.4 0 0 0-1.4-1.4H7v-2.8c2.1-.57 3.896-2.58 4.16-4.9H.04c.265 2.32 2.06 4.33 4.16 4.9v2.8H1.4z" fill="#4BDEBE" fill-rule="evenodd"/></svg>