<svg width="24" height="21" viewBox="0 0 24 21" xmlns="http://www.w3.org/2000/svg"><title>dinner</title><g fill="#329FFF" fill-rule="evenodd"><path d="M24 5.625C24 2.518 18.628 0 12 0S0 2.518 0 5.625V6c0 4.971 3 12 12 12s11.692-7.066 12-12c-.015.014 0-.234 0-.375zM12 12a.75.75 0 1 1 .001 1.499A.75.75 0 0 1 12 12zm0-10.5c6.41 0 10.5 2.443 10.5 4.125 0 1.681-4.09 4.125-10.5 4.125S1.5 7.306 1.5 5.625C1.5 3.943 5.59 1.5 12 1.5zM10.5 15a.75.75 0 1 1-.001-1.499A.75.75 0 0 1 10.5 15zm1.5 1.5a.75.75 0 1 1-.001-1.499A.75.75 0 0 1 12 16.5zm1.5-1.5a.75.75 0 1 1-.001-1.499A.75.75 0 0 1 13.5 15z"/><path d="M19.898 16.377c-2.18 1.612-4.994 2.372-7.898 2.372s-5.474-.76-7.654-2.372c-.638.438-.999.935-.999 1.464 0 1.744 3.929 3.159 8.774 3.159 4.847 0 8.774-1.415 8.774-3.159 0-.529-.36-1.026-.997-1.464z"/><circle cx="6" cy="4.5" r=".75"/><circle cx="6" cy="7.5" r=".75"/><ellipse cx="7.5" cy="6" rx=".75" ry=".75"/><ellipse cx="4.5" cy="6" rx=".75" ry=".75"/><ellipse cx="18" cy="4.5" rx=".75" ry=".75"/><ellipse cx="18" cy="7.5" rx=".75" ry=".75"/><circle cx="19.5" cy="6" r=".75"/><ellipse cx="16.5" cy="6" rx=".75" ry=".75"/></g></svg>