<svg width="44" height="50" viewBox="0 0 44 50" xmlns="http://www.w3.org/2000/svg" xmlns:xlink="http://www.w3.org/1999/xlink"><title>Artboard 4</title><defs><path d="M20.274.41c.953-.555 2.496-.557 3.452 0l18.548 10.788c.953.555 1.726 1.9 1.726 3.013v21.578c0 1.11-.77 2.456-1.726 3.013L23.726 49.59c-.953.554-2.496.556-3.452 0L1.726 38.8C.773 38.248 0 36.902 0 35.79V14.211c0-1.11.77-2.456 1.726-3.013L20.274.41z" id="a"/><filter x="-50%" y="-50%" width="200%" height="200%" filterUnits="objectBoundingBox" id="b"><feGaussianBlur stdDeviation=".5" in="SourceAlpha" result="shadowBlurInner1"/><feOffset dy="-1" in="shadowBlurInner1" result="shadowOffsetInner1"/><feComposite in="shadowOffsetInner1" in2="SourceAlpha" operator="arithmetic" k2="-1" k3="1" result="shadowInnerInner1"/><feColorMatrix values="0 0 0 0 1 0 0 0 0 1 0 0 0 0 1 0 0 0 0.179630888 0" in="shadowInnerInner1"/></filter><linearGradient x1="50%" y1="0%" x2="50%" y2="100%" id="e"><stop stop-color="#B76AFF" offset="0%"/><stop stop-color="#8645E8" offset="100%"/></linearGradient><path d="M21.842 17.348a.544.544 0 0 0-.518.534v1.244a6.122 6.122 0 0 0-5.563 5.563h-1.298a.545.545 0 0 0-.496.55.545.545 0 0 0 .551.497h1.243a6.122 6.122 0 0 0 5.563 5.563v1.243a.547.547 0 0 0 .524.535.547.547 0 0 0 .524-.535V31.3a6.122 6.122 0 0 0 5.562-5.563h1.244a.543.543 0 0 0 .529-.524.543.543 0 0 0-.53-.523h-1.243a6.122 6.122 0 0 0-5.562-5.563v-1.244a.545.545 0 0 0-.53-.534zm.006 2.803a5.053 5.053 0 0 1 5.061 5.061 5.053 5.053 0 0 1-5.061 5.061 5.053 5.053 0 0 1-5.061-5.06 5.053 5.053 0 0 1 5.06-5.062zm0 3.316c-.958 0-1.745.788-1.745 1.745 0 .958.787 1.746 1.745 1.746.958 0 1.745-.788 1.745-1.746 0-.957-.787-1.745-1.745-1.745zm0 1.047a.69.69 0 0 1 .698.698.69.69 0 0 1-.698.698.69.69 0 0 1-.698-.698.69.69 0 0 1 .698-.698z" id="d"/><filter x="-50%" y="-50%" width="200%" height="200%" filterUnits="objectBoundingBox" id="c"><feMorphology radius=".5" operator="dilate" in="SourceAlpha" result="shadowSpreadOuter1"/><feOffset dy="3" in="shadowSpreadOuter1" result="shadowOffsetOuter1"/><feGaussianBlur stdDeviation="10.5" in="shadowOffsetOuter1" result="shadowBlurOuter1"/><feColorMatrix values="0 0 0 0 0.6 0 0 0 0 0.270588235 0 0 0 0 0.909803922 0 0 0 0.686707428 0" in="shadowBlurOuter1"/></filter></defs><g fill="none" fill-rule="evenodd"><g opacity=".6"><use fill-opacity=".1" fill="#000" xlink:href="#a"/><use fill="#000" filter="url(#b)" xlink:href="#a"/><use stroke-opacity=".101" stroke="#000" xlink:href="#a"/></g><use fill="#000" filter="url(#c)" xlink:href="#d"/><use fill="url(#e)" xlink:href="#d"/></g></svg>