<svg width="44" height="50" viewBox="0 0 44 50" xmlns="http://www.w3.org/2000/svg" xmlns:xlink="http://www.w3.org/1999/xlink"><title>red pressed</title><defs><path d="M20.274.41c.953-.555 2.496-.557 3.452 0l18.548 10.788c.953.555 1.726 1.9 1.726 3.013v21.578c0 1.11-.77 2.456-1.726 3.013L23.726 49.59c-.953.554-2.496.556-3.452 0L1.726 38.8C.773 38.248 0 36.902 0 35.79V14.211c0-1.11.77-2.456 1.726-3.013L20.274.41z" id="a"/><filter x="-50%" y="-50%" width="200%" height="200%" filterUnits="objectBoundingBox" id="b"><feGaussianBlur stdDeviation=".5" in="SourceAlpha" result="shadowBlurInner1"/><feOffset dy="-1" in="shadowBlurInner1" result="shadowOffsetInner1"/><feComposite in="shadowOffsetInner1" in2="SourceAlpha" operator="arithmetic" k2="-1" k3="1" result="shadowInnerInner1"/><feColorMatrix values="0 0 0 0 1 0 0 0 0 1 0 0 0 0 1 0 0 0 0.179630888 0" in="shadowInnerInner1"/></filter><linearGradient x1="50%" y1="0%" x2="50%" y2="100%" id="c"><stop stop-color="#FD6882" offset="0%"/><stop stop-color="#E3405D" offset="100%"/></linearGradient></defs><g fill="none" fill-rule="evenodd"><g opacity=".6"><use fill-opacity=".1" fill="#000" xlink:href="#a"/><use fill="#000" filter="url(#b)" xlink:href="#a"/><use stroke-opacity=".101" stroke="#000" xlink:href="#a"/></g><path d="M14 30.101c0-.406.328-.735.726-.735h14.96a.73.73 0 0 1 .727.735.733.733 0 0 1-.726.736h-14.96A.73.73 0 0 1 14 30.1zm2.16-3.455c0-.406.323-.735.738-.735h10.617a.735.735 0 1 1 0 1.47H16.898a.735.735 0 0 1-.738-.735zm2.16-3.455c0-.406.333-.736.73-.736h6.312c.404 0 .732.327.732.736a.738.738 0 0 1-.732.735h-6.311a.732.732 0 0 1-.732-.735zm2.159-3.456c0-.406.331-.735.733-.735h1.99a.736.736 0 0 1 0 1.47h-1.99a.732.732 0 0 1-.733-.735z" fill="url(#c)"/></g></svg>