<svg width="44" height="50" viewBox="0 0 44 50" xmlns="http://www.w3.org/2000/svg" xmlns:xlink="http://www.w3.org/1999/xlink"><title>red</title><defs><path d="M20.274.41c.953-.555 2.496-.557 3.452 0l18.548 10.788c.953.555 1.726 1.9 1.726 3.013v21.578c0 1.11-.77 2.456-1.726 3.013L23.726 49.59c-.953.554-2.496.556-3.452 0L1.726 38.8C.773 38.248 0 36.902 0 35.79V14.211c0-1.11.77-2.456 1.726-3.013L20.274.41z" id="a"/><filter x="-50%" y="-50%" width="200%" height="200%" filterUnits="objectBoundingBox" id="b"><feGaussianBlur stdDeviation=".5" in="SourceAlpha" result="shadowBlurInner1"/><feOffset dy="-1" in="shadowBlurInner1" result="shadowOffsetInner1"/><feComposite in="shadowOffsetInner1" in2="SourceAlpha" operator="arithmetic" k2="-1" k3="1" result="shadowInnerInner1"/><feColorMatrix values="0 0 0 0 1 0 0 0 0 1 0 0 0 0 1 0 0 0 0.179630888 0" in="shadowInnerInner1"/></filter><path d="M16.895 3.109c.959-.553 2.513-.553 3.472 0l15.159 8.74c.959.553 1.736 1.897 1.736 3.003v17.48c0 1.106-.777 2.45-1.736 3.004l-15.16 8.74c-.958.553-2.512.553-3.471 0l-15.159-8.74C.777 34.783 0 33.439 0 32.333v-17.48c0-1.107.777-2.45 1.736-3.004l15.159-8.74z" id="d"/><filter x="-50%" y="-50%" width="200%" height="200%" filterUnits="objectBoundingBox" id="c"><feMorphology radius=".5" operator="dilate" in="SourceAlpha" result="shadowSpreadOuter1"/><feOffset dx="1" dy="1" in="shadowSpreadOuter1" result="shadowOffsetOuter1"/><feGaussianBlur stdDeviation="1.5" in="shadowOffsetOuter1" result="shadowBlurOuter1"/><feColorMatrix values="0 0 0 0 0 0 0 0 0 0 0 0 0 0 0 0 0 0 0.303810009 0" in="shadowBlurOuter1"/></filter><linearGradient x1="50%" y1="104.533%" x2="15.805%" y2="32.426%" id="f"><stop stop-color="#19242C" offset="0%"/><stop stop-color="#2A3B48" offset="100%"/></linearGradient><path d="M16.895 1.09c.959-.554 2.513-.554 3.472 0l15.159 8.74c.959.552 1.736 1.896 1.736 3.002v17.48c0 1.107-.777 2.45-1.736 3.004l-15.16 8.74c-.958.553-2.512.553-3.471 0l-15.159-8.74C.777 32.763 0 31.419 0 30.313v-17.48c0-1.106.777-2.45 1.736-3.004l15.159-8.74z" id="e"/><path d="M42.165 10.214v-.358c0-1.114-.775-2.456-1.73-3.01L20.36-4.792c-.947-.55-2.505-.554-3.46 0L-3.173 6.846c-.948.55-1.73 1.902-1.73 3.01v23.278c0 1.114.774 2.456 1.73 3.01l.8.464C3.402 20.932 18.42 9.757 36.038 9.757c2.082 0 4.128.156 6.127.457z" id="i"/><filter x="-50%" y="-50%" width="200%" height="200%" filterUnits="objectBoundingBox" id="h"><feOffset dy="2" in="SourceAlpha" result="shadowOffsetOuter1"/><feGaussianBlur stdDeviation="12" in="shadowOffsetOuter1" result="shadowBlurOuter1"/><feColorMatrix values="0 0 0 0 0.0901960784 0 0 0 0 0.129411765 0 0 0 0 0.156862745 0 0 0 0.6 0" in="shadowBlurOuter1"/></filter><filter x="-50%" y="-50%" width="200%" height="200%" filterUnits="objectBoundingBox" id="j"><feOffset dy="2" in="SourceAlpha" result="shadowOffsetOuter1"/><feGaussianBlur stdDeviation="7" in="shadowOffsetOuter1" result="shadowBlurOuter1"/><feColorMatrix values="0 0 0 0 0.965933248 0 0 0 0 0.192565409 0 0 0 0 0.325728084 0 0 0 0.646654212 0" in="shadowBlurOuter1" result="shadowMatrixOuter1"/><feMerge><feMergeNode in="shadowMatrixOuter1"/><feMergeNode in="SourceGraphic"/></feMerge></filter><linearGradient x1="50%" y1="0%" x2="50%" y2="100%" id="k"><stop stop-color="#FD6882" offset="0%"/><stop stop-color="#E3405D" offset="100%"/></linearGradient></defs><g fill="none" fill-rule="evenodd"><g opacity=".6"><use fill-opacity=".1" fill="#000" xlink:href="#a"/><use fill="#000" filter="url(#b)" xlink:href="#a"/><use stroke-opacity=".101" stroke="#000" xlink:href="#a"/></g><g transform="translate(3 3)"><use fill="#000" filter="url(#c)" xlink:href="#d"/><use fill="#141C22" xlink:href="#d"/><mask id="g" fill="#fff"><use xlink:href="#e"/></mask><use fill="url(#f)" xlink:href="#e"/><g opacity=".516" style="mix-blend-mode:soft-light" mask="url(#g)"><use fill="#000" filter="url(#h)" xlink:href="#i"/><use fill="#FFF" xlink:href="#i"/></g></g><path d="M0 11.101c0-.406.328-.735.726-.735h14.96a.73.73 0 0 1 .727.735.733.733 0 0 1-.726.736H.727A.73.73 0 0 1 0 11.1zm2.16-3.455c0-.406.323-.735.738-.735h10.617a.735.735 0 1 1 0 1.47H2.898a.735.735 0 0 1-.738-.735zm2.16-3.455c0-.406.333-.736.73-.736h6.312c.404 0 .732.327.732.736a.738.738 0 0 1-.732.735H5.051a.732.732 0 0 1-.732-.735zM6.478.735A.738.738 0 0 1 7.212 0h1.99a.736.736 0 0 1 0 1.47h-1.99a.732.732 0 0 1-.733-.735z" filter="url(#j)" transform="translate(14 19)" fill="url(#k)"/></g></svg>