<svg width="44" height="50" viewBox="0 0 44 50" xmlns="http://www.w3.org/2000/svg" xmlns:xlink="http://www.w3.org/1999/xlink"><title>blue pressed</title><defs><path d="M20.274.41c.953-.555 2.496-.557 3.452 0l18.548 10.788c.953.555 1.726 1.9 1.726 3.013v21.578c0 1.11-.77 2.456-1.726 3.013L23.726 49.59c-.953.554-2.496.556-3.452 0L1.726 38.8C.773 38.248 0 36.902 0 35.79V14.211c0-1.11.77-2.456 1.726-3.013L20.274.41z" id="a"/><filter x="-50%" y="-50%" width="200%" height="200%" filterUnits="objectBoundingBox" id="b"><feGaussianBlur stdDeviation=".5" in="SourceAlpha" result="shadowBlurInner1"/><feOffset dy="-1" in="shadowBlurInner1" result="shadowOffsetInner1"/><feComposite in="shadowOffsetInner1" in2="SourceAlpha" operator="arithmetic" k2="-1" k3="1" result="shadowInnerInner1"/><feColorMatrix values="0 0 0 0 1 0 0 0 0 1 0 0 0 0 1 0 0 0 0.179630888 0" in="shadowInnerInner1"/></filter><linearGradient x1="50%" y1="0%" x2="50%" y2="98.438%" id="e"><stop stop-color="#68B9FF" offset="0%"/><stop stop-color="#1F75EB" offset="100%"/></linearGradient><path d="M30.967 25.238a.288.288 0 0 0-.042-.1c-.007-.012-.012-.025-.02-.037a.499.499 0 0 0-.063-.077l-1.784-1.784a.504.504 0 1 0-.714.713l.923.923h-4.89a2.531 2.531 0 0 0-1.967-1.968v-4.89l.922.923a.503.503 0 0 0 .714 0 .504.504 0 0 0 0-.713l-1.784-1.784a.508.508 0 0 0-.077-.064c-.012-.008-.026-.013-.038-.02a.296.296 0 0 0-.05-.026c-.016-.007-.033-.01-.05-.016-.014-.004-.029-.01-.043-.013a.509.509 0 0 0-.198 0c-.015.003-.03.009-.044.013l-.05.016c-.017.007-.033.017-.05.026-.012.007-.025.012-.037.02a.508.508 0 0 0-.078.064l-1.784 1.784a.504.504 0 1 0 .714.713l.923-.923v4.89a2.531 2.531 0 0 0-1.968 1.968h-4.89l.924-.923a.504.504 0 1 0-.714-.714l-1.784 1.784a.508.508 0 0 0-.064.078c-.008.012-.013.025-.02.037-.009.016-.019.032-.026.05-.007.016-.01.033-.015.05-.005.015-.01.029-.013.044a.509.509 0 0 0 0 .198c.003.015.008.029.013.043.005.017.008.034.015.05a.585.585 0 0 0 .026.05l.02.038c.02.028.04.054.064.077l1.784 1.784a.503.503 0 0 0 .714 0 .504.504 0 0 0 0-.713l-.923-.924h4.889c.201.988.98 1.767 1.968 1.969v4.889l-.923-.923a.504.504 0 1 0-.714.714l1.784 1.784c.024.023.05.044.078.063.012.008.025.014.038.02.016.01.031.02.049.026.016.007.033.011.05.016.015.004.029.01.044.013a.478.478 0 0 0 .198 0c.015-.003.029-.008.043-.013a.288.288 0 0 0 .05-.015c.018-.007.034-.017.05-.026.013-.007.026-.012.038-.02a.49.49 0 0 0 .077-.064l1.784-1.784a.504.504 0 1 0-.714-.714l-.922.923v-4.89a2.531 2.531 0 0 0 1.968-1.968h4.889l-.923.923a.504.504 0 1 0 .714.714l1.784-1.784a.508.508 0 0 0 .063-.077c.008-.012.013-.025.02-.037.01-.017.02-.033.027-.05l.015-.05a.509.509 0 0 0 .013-.242.32.32 0 0 0-.013-.044zm-9.062 1.657c-.835 0-1.514-.68-1.514-1.514 0-.835.679-1.515 1.514-1.515s1.514.68 1.514 1.515c0 .835-.68 1.514-1.514 1.514z" id="d"/><filter x="-50%" y="-50%" width="200%" height="200%" filterUnits="objectBoundingBox" id="c"><feMorphology radius=".5" operator="dilate" in="SourceAlpha" result="shadowSpreadOuter1"/><feOffset dy="3" in="shadowSpreadOuter1" result="shadowOffsetOuter1"/><feGaussianBlur stdDeviation="10.5" in="shadowOffsetOuter1" result="shadowBlurOuter1"/><feColorMatrix values="0 0 0 0 0.196078431 0 0 0 0 0.623529412 0 0 0 0 1 0 0 0 0.470250226 0" in="shadowBlurOuter1"/></filter></defs><g fill="none" fill-rule="evenodd"><g opacity=".6"><use fill-opacity=".1" fill="#000" xlink:href="#a"/><use fill="#000" filter="url(#b)" xlink:href="#a"/><use stroke-opacity=".101" stroke="#000" xlink:href="#a"/></g><use fill="#000" filter="url(#c)" xlink:href="#d"/><use fill="url(#e)" xlink:href="#d"/></g></svg>