<svg width="44" height="50" viewBox="0 0 44 50" xmlns="http://www.w3.org/2000/svg" xmlns:xlink="http://www.w3.org/1999/xlink"><title>green hover</title><defs><path d="M20.274.41c.953-.555 2.496-.557 3.452 0l18.548 10.788c.953.555 1.726 1.9 1.726 3.013v21.578c0 1.11-.77 2.456-1.726 3.013L23.726 49.59c-.953.554-2.496.556-3.452 0L1.726 38.8C.773 38.248 0 36.902 0 35.79V14.211c0-1.11.77-2.456 1.726-3.013L20.274.41z" id="a"/><filter x="-50%" y="-50%" width="200%" height="200%" filterUnits="objectBoundingBox" id="b"><feGaussianBlur stdDeviation=".5" in="SourceAlpha" result="shadowBlurInner1"/><feOffset dy="-1" in="shadowBlurInner1" result="shadowOffsetInner1"/><feComposite in="shadowOffsetInner1" in2="SourceAlpha" operator="arithmetic" k2="-1" k3="1" result="shadowInnerInner1"/><feColorMatrix values="0 0 0 0 1 0 0 0 0 1 0 0 0 0 1 0 0 0 0.179630888 0" in="shadowInnerInner1"/></filter><path d="M16.895 3.109c.959-.553 2.513-.553 3.472 0l15.159 8.74c.959.553 1.736 1.897 1.736 3.003v17.48c0 1.106-.777 2.45-1.736 3.004l-15.16 8.74c-.958.553-2.512.553-3.471 0l-15.159-8.74C.777 34.783 0 33.439 0 32.333v-17.48c0-1.107.777-2.45 1.736-3.004l15.159-8.74z" id="d"/><filter x="-50%" y="-50%" width="200%" height="200%" filterUnits="objectBoundingBox" id="c"><feMorphology radius=".5" operator="dilate" in="SourceAlpha" result="shadowSpreadOuter1"/><feOffset dx="1" dy="1" in="shadowSpreadOuter1" result="shadowOffsetOuter1"/><feGaussianBlur stdDeviation="1.5" in="shadowOffsetOuter1" result="shadowBlurOuter1"/><feColorMatrix values="0 0 0 0 0 0 0 0 0 0 0 0 0 0 0 0 0 0 0.303810009 0" in="shadowBlurOuter1"/></filter><linearGradient x1="50%" y1="104.533%" x2="15.805%" y2="32.426%" id="f"><stop stop-color="#19242C" offset="0%"/><stop stop-color="#2A3B48" offset="100%"/></linearGradient><path d="M16.895 1.09c.959-.554 2.513-.554 3.472 0l15.159 8.74c.959.552 1.736 1.896 1.736 3.002v17.48c0 1.107-.777 2.45-1.736 3.004l-15.16 8.74c-.958.553-2.512.553-3.471 0l-15.159-8.74C.777 32.763 0 31.419 0 30.313v-17.48c0-1.106.777-2.45 1.736-3.004l15.159-8.74z" id="e"/><path d="M42.165 10.214v-.358c0-1.114-.775-2.456-1.73-3.01L20.36-4.792c-.947-.55-2.505-.554-3.46 0L-3.173 6.846c-.948.55-1.73 1.902-1.73 3.01v23.278c0 1.114.774 2.456 1.73 3.01l.8.464C3.402 20.932 18.42 9.757 36.038 9.757c2.082 0 4.128.156 6.127.457z" id="i"/><filter x="-50%" y="-50%" width="200%" height="200%" filterUnits="objectBoundingBox" id="h"><feOffset dy="2" in="SourceAlpha" result="shadowOffsetOuter1"/><feGaussianBlur stdDeviation="12" in="shadowOffsetOuter1" result="shadowBlurOuter1"/><feColorMatrix values="0 0 0 0 0.0901960784 0 0 0 0 0.129411765 0 0 0 0 0.156862745 0 0 0 0.6 0" in="shadowBlurOuter1"/></filter><linearGradient x1="50%" y1="0%" x2="50%" y2="100%" id="j"><stop stop-color="#82F1E1" offset="0%"/><stop stop-color="#4BDEBE" offset="100%"/></linearGradient></defs><g fill="none" fill-rule="evenodd"><g opacity=".6"><use fill-opacity=".1" fill="#000" xlink:href="#a"/><use fill="#000" filter="url(#b)" xlink:href="#a"/><use stroke-opacity=".101" stroke="#000" xlink:href="#a"/></g><g transform="translate(3 3)"><use fill="#000" filter="url(#c)" xlink:href="#d"/><use fill="#141C22" xlink:href="#d"/><mask id="g" fill="#fff"><use xlink:href="#e"/></mask><use stroke="#82F1E1" stroke-width="2" fill="url(#f)" xlink:href="#e"/><g opacity=".516" style="mix-blend-mode:soft-light" mask="url(#g)"><use fill="#000" filter="url(#h)" xlink:href="#i"/><use fill="#FFF" xlink:href="#i"/></g></g><path d="M9.241 18.478a9.213 9.213 0 0 1-6.534-2.702A9.181 9.181 0 0 1 0 9.24c0-2.468.961-4.789 2.707-6.534a.513.513 0 1 1 .726.726A8.163 8.163 0 0 0 1.027 9.24a8.16 8.16 0 0 0 2.406 5.809c3.203 3.202 8.414 3.202 11.617 0 3.202-3.203 3.202-8.415 0-11.617a8.162 8.162 0 0 0-5.81-2.405.514.514 0 0 1 0-1.027c2.468 0 4.789.961 6.535 2.707 3.603 3.603 3.603 9.465 0 13.069a9.212 9.212 0 0 1-6.535 2.702zm0-2.566a6.653 6.653 0 0 1-4.72-1.952 6.63 6.63 0 0 1-1.954-4.719.514.514 0 0 1 1.027 0c0 1.508.587 2.927 1.654 3.993a5.654 5.654 0 0 0 7.986 0 5.654 5.654 0 0 0 0-7.986 5.611 5.611 0 0 0-3.993-1.654.514.514 0 0 1 0-1.027 6.63 6.63 0 0 1 4.72 1.955 6.682 6.682 0 0 1 0 9.438 6.654 6.654 0 0 1-4.72 1.952zm0-2.564a4.078 4.078 0 0 1-2.904-1.203.513.513 0 1 1 .726-.726 3.06 3.06 0 0 0 2.178.902 3.06 3.06 0 0 0 2.178-.902 3.061 3.061 0 0 0 .902-2.178 3.06 3.06 0 0 0-.902-2.178 3.061 3.061 0 0 0-2.178-.902.514.514 0 0 1 0-1.027 4.08 4.08 0 0 1 2.904 1.203 4.08 4.08 0 0 1 1.203 2.904 4.078 4.078 0 0 1-1.203 2.904 4.078 4.078 0 0 1-2.904 1.203z" transform="translate(12.82 16.296)" fill="url(#j)"/></g></svg>