<svg width="44" height="50" viewBox="0 0 44 50" xmlns="http://www.w3.org/2000/svg" xmlns:xlink="http://www.w3.org/1999/xlink"><title>green pressed</title><defs><path d="M20.274.41c.953-.555 2.496-.557 3.452 0l18.548 10.788c.953.555 1.726 1.9 1.726 3.013v21.578c0 1.11-.77 2.456-1.726 3.013L23.726 49.59c-.953.554-2.496.556-3.452 0L1.726 38.8C.773 38.248 0 36.902 0 35.79V14.211c0-1.11.77-2.456 1.726-3.013L20.274.41z" id="a"/><filter x="-50%" y="-50%" width="200%" height="200%" filterUnits="objectBoundingBox" id="b"><feGaussianBlur stdDeviation=".5" in="SourceAlpha" result="shadowBlurInner1"/><feOffset dy="-1" in="shadowBlurInner1" result="shadowOffsetInner1"/><feComposite in="shadowOffsetInner1" in2="SourceAlpha" operator="arithmetic" k2="-1" k3="1" result="shadowInnerInner1"/><feColorMatrix values="0 0 0 0 1 0 0 0 0 1 0 0 0 0 1 0 0 0 0.179630888 0" in="shadowInnerInner1"/></filter><linearGradient x1="50%" y1="0%" x2="50%" y2="100%" id="c"><stop stop-color="#82F1E1" offset="0%"/><stop stop-color="#4BDEBE" offset="100%"/></linearGradient></defs><g fill="none" fill-rule="evenodd"><g opacity=".6"><use fill-opacity=".1" fill="#000" xlink:href="#a"/><use fill="#000" filter="url(#b)" xlink:href="#a"/><use stroke-opacity=".101" stroke="#000" xlink:href="#a"/></g><path d="M22.061 34.773a9.213 9.213 0 0 1-6.535-2.702 9.181 9.181 0 0 1-2.706-6.534c0-2.468.961-4.79 2.706-6.535a.513.513 0 1 1 .726.726 8.163 8.163 0 0 0-2.405 5.809 8.16 8.16 0 0 0 2.406 5.808c3.202 3.203 8.414 3.203 11.616 0 3.203-3.203 3.203-8.414 0-11.617a8.162 8.162 0 0 0-5.808-2.406.514.514 0 0 1 0-1.026c2.468 0 4.789.96 6.534 2.706 3.603 3.603 3.603 9.466 0 13.07a9.212 9.212 0 0 1-6.534 2.701zm0-2.566c-1.71 0-3.418-.65-4.72-1.951a6.63 6.63 0 0 1-1.954-4.72.514.514 0 0 1 1.027 0 5.61 5.61 0 0 0 1.654 3.994 5.654 5.654 0 0 0 7.986 0 5.654 5.654 0 0 0 0-7.987 5.611 5.611 0 0 0-3.993-1.654.514.514 0 0 1 0-1.026c1.782 0 3.459.694 4.72 1.954a6.682 6.682 0 0 1 0 9.439 6.654 6.654 0 0 1-4.72 1.951zm0-2.563a4.078 4.078 0 0 1-2.904-1.203.513.513 0 1 1 .726-.726 3.06 3.06 0 0 0 2.178.902 3.06 3.06 0 0 0 2.178-.902 3.061 3.061 0 0 0 .902-2.178 3.06 3.06 0 0 0-.902-2.178 3.061 3.061 0 0 0-2.178-.903.514.514 0 0 1 0-1.026 4.08 4.08 0 0 1 2.904 1.203 4.08 4.08 0 0 1 1.203 2.904 4.078 4.078 0 0 1-1.203 2.904 4.078 4.078 0 0 1-2.904 1.203z" fill="url(#c)"/></g></svg>