<?xml version="1.0" encoding="UTF-8" standalone="no"?>
<svg width="371px" height="28px" viewBox="0 0 371 28" version="1.1" xmlns="http://www.w3.org/2000/svg" xmlns:xlink="http://www.w3.org/1999/xlink">
    <!-- Generator: Sketch 41.2 (35397) - http://www.bohemiancoding.com/sketch -->
    <title>Artboard 2</title>
    <desc>Created with Sketch.</desc>
    <defs></defs>
    <g stroke="none" stroke-width="1" fill="none" fill-rule="evenodd">
        <g>
            <g>
                <text font-family="EurostileExt-BlaIta, Eurostile Extd" font-size="22" font-style="italic" font-weight="700" letter-spacing="-0.825000167" fill="#FFFFFF">
                    <tspan x="32" y="21">BodyTransformations.</tspan>
                    <tspan x="331.331997" y="21" font-size="12" letter-spacing="-0.449999988">COM</tspan>
                </text>
                <g fill="#0A55F7">
                    <path d="M13.443438,18.7962961 C9.09815032,18.7962961 5.10438592,20.1637407 1.93890648,22.4487156 C5.10438592,24.7336905 9.09815032,26.1011351 13.443438,26.1011351 C17.7887256,26.1011351 21.78249,24.7336905 24.9479695,22.4487156 C21.78249,20.1637407 17.7887256,18.7962961 13.443438,18.7962961"></path>
                    <path d="M23.301873,9.02563125 C21.1293029,5.26257704 17.9481871,2.48756426 14.3866355,0.888671875 C13.9905633,4.77253916 14.8032119,8.91499658 16.975782,12.6780508 C19.1484996,16.4412525 22.3294679,19.2161178 25.891167,20.8150102 C26.2872391,16.9311429 25.4745906,12.788833 23.301873,9.02563125"></path>
                    <path d="M12.5002405,0.888671875 C8.93868887,2.48756426 5.75757306,5.26257704 3.58485548,9.02577877 C1.41228541,12.788833 0.599636812,16.9312904 0.995708963,20.8151577 C4.55726055,19.2161178 7.73837636,16.4412525 9.91094643,12.6780508 C12.083664,8.91499658 12.8963126,4.77253916 12.5002405,0.888671875"></path>
                    <path d="M15.8645673,14.5274201 C15.8645673,15.8646246 14.7806425,16.9486969 13.443438,16.9486969 C12.1062335,16.9486969 11.0223087,15.8646246 11.0223087,14.5274201 C11.0223087,13.1903631 12.1062335,12.1062908 13.443438,12.1062908 C14.7806425,12.1062908 15.8645673,13.1903631 15.8645673,14.5274201"></path>
                </g>
            </g>
        </g>
    </g>
</svg>